<svg width="174" height="29" viewBox="0 0 174 29" fill="none" xmlns="http://www.w3.org/2000/svg">
<path d="M11.6523 1.92442C12.4727 1.92442 13.2109 2.06378 13.8672 2.34249C14.5469 2.59798 15.168 2.8883 15.7305 3.21346C16.3164 3.53863 16.8672 3.84056 17.3828 4.11928C17.8984 4.37476 18.4258 4.50249 18.9648 4.50249C19.3867 4.47928 19.8672 4.4212 20.4062 4.3283C20.875 4.2354 21.4141 4.09605 22.0234 3.91024C22.6562 3.7012 23.3594 3.39927 24.1328 3.00443C23.3594 3.74766 22.7266 4.37476 22.2344 4.88572C21.7656 5.37347 21.4023 5.77993 21.1445 6.10508C20.8398 6.4767 20.6172 6.76702 20.4766 6.97606C20.3359 7.23154 20.125 7.61477 19.8438 8.12573C19.5859 8.59025 19.2344 9.21736 18.7891 10.007C18.3438 10.7735 17.7812 11.7839 17.1016 13.038C17.1016 11.4354 16.9375 10.1928 16.6094 9.31026C16.3047 8.42767 15.9648 7.75412 15.5898 7.2896C15.1445 6.75541 14.6406 6.41864 14.0781 6.27928C13.5625 6.2096 13.0469 6.3025 12.5312 6.55799C12.0156 6.79025 11.5 7.13864 10.9844 7.60315C10.4922 8.06767 10.0117 8.62509 9.54293 9.27542C9.09762 9.90251 8.68746 10.5645 8.31246 11.2612C7.9609 11.958 7.66793 12.6664 7.43355 13.3864C7.19918 14.0832 7.04684 14.7335 6.97652 15.3374C6.90621 15.8716 6.89449 16.4987 6.94137 17.2186C6.98824 17.9154 7.09371 18.6354 7.25777 19.3787C7.42184 20.0987 7.63277 20.8071 7.89058 21.5038C8.1484 22.2007 8.4648 22.8277 8.8398 23.3852C9.23824 23.9193 9.68355 24.3607 10.1758 24.709C10.668 25.0341 11.2305 25.1852 11.8633 25.162C12.5664 25.1155 13.2578 24.9064 13.9375 24.5348C14.5234 24.2328 15.1211 23.7684 15.7305 23.1413C16.3398 22.4909 16.8672 21.5736 17.3125 20.389L22.5156 21.3297C21.0156 23.1413 19.5508 24.5 18.1211 25.4058C16.7148 26.3116 15.4492 26.9503 14.3242 27.3219C13.0117 27.74 11.7695 27.9374 10.5977 27.9142C9.12105 27.7516 7.73824 27.3103 6.44918 26.5904C5.16012 25.8703 4.04684 24.9994 3.10934 23.9774C2.19527 22.9323 1.48043 21.7942 0.964805 20.5632C0.44918 19.3322 0.226523 18.1245 0.296836 16.94C0.343711 16.1503 0.507773 15.2328 0.789023 14.1877C1.07027 13.1193 1.44527 12.0276 1.91402 10.9128C2.40621 9.798 2.99215 8.70638 3.67184 7.638C4.35152 6.5696 5.10152 5.61734 5.92184 4.7812C6.74215 3.92185 7.63277 3.23669 8.59371 2.72571C9.57808 2.19152 10.5977 1.92442 11.6523 1.92442ZM23.3672 12.0974L29.8359 12.1671C29.4609 13.5839 29.1797 14.7916 28.9922 15.7903C28.8281 16.789 28.7227 17.6251 28.6758 18.2987C28.582 19.0651 28.5586 19.7155 28.6055 20.2496C28.6758 20.7374 28.793 21.2599 28.957 21.8174C29.0977 22.2819 29.3086 22.8161 29.5898 23.4199C29.8711 24.0238 30.2461 24.6277 30.7148 25.2316C30.4336 25.1387 30.1289 25.069 29.8008 25.0225C29.4727 24.9761 29.168 24.9413 28.8867 24.9181C28.5586 24.8948 28.2305 24.8948 27.9023 24.9181C27.5742 24.9413 27.2109 24.9761 26.8125 25.0225C26.4844 25.069 26.0859 25.1271 25.6172 25.1968C25.1484 25.2664 24.6562 25.3594 24.1406 25.4755C24.4922 24.4303 24.7617 23.5245 24.9492 22.7581C25.1602 21.9916 25.3125 21.3529 25.4062 20.8419C25.5 20.238 25.5586 19.7503 25.582 19.3787C25.582 18.9142 25.582 18.3916 25.582 17.8109C25.582 17.2071 25.582 16.6264 25.582 16.069C25.582 15.5116 25.5703 15.0238 25.5469 14.6058C25.5234 14.1645 25.4766 13.8857 25.4062 13.7697L25.0547 13.4212C24.9141 13.3051 24.7031 13.1425 24.4219 12.9335C24.1641 12.7012 23.8125 12.4225 23.3672 12.0974ZM25.8633 6.73218C26.3555 6.4767 26.8477 6.40702 27.3398 6.52315C27.8555 6.63928 28.2539 6.85993 28.5352 7.18508C28.8164 7.51025 28.9102 7.89348 28.8164 8.33477C28.7461 8.77606 28.3711 9.20574 27.6914 9.6238C27.0117 10.0186 26.4141 10.158 25.8984 10.0419C25.3828 9.92574 25.0195 9.68188 24.8086 9.31026C24.5977 8.93865 24.5625 8.50896 24.7031 8.02122C24.8438 7.51025 25.2305 7.08058 25.8633 6.73218ZM33.5703 23.838C33.7344 23.0716 33.8516 22.3981 33.9219 21.8174C34.0156 21.2135 34.0859 20.7142 34.1328 20.3193C34.1797 19.8548 34.2031 19.4599 34.2031 19.1348C34.1797 18.74 34.1562 18.2754 34.1328 17.7413C34.1328 17.1839 34.1094 16.638 34.0625 16.1038C34.0391 15.5464 34.0039 15.0586 33.957 14.6406C33.9102 14.1993 33.8516 13.8857 33.7812 13.6999C33.6875 13.5141 33.5586 13.3167 33.3945 13.1077C33.0664 12.7128 32.5859 12.3296 31.9531 11.958C32.4922 11.8418 32.9492 11.749 33.3242 11.6793C33.7227 11.5864 34.0508 11.5051 34.3086 11.4354C34.5898 11.3425 34.8359 11.2612 35.0469 11.1916C35.2344 11.1219 35.457 11.0522 35.7148 10.9826C35.9258 10.9361 36.1836 10.878 36.4883 10.8083C36.793 10.7386 37.1445 10.6574 37.543 10.5645L37.4375 13.7348C38.1875 12.8522 38.9492 12.1903 39.7227 11.749C40.4961 11.3077 41.2227 10.9942 41.9023 10.8083C42.6758 10.5761 43.4375 10.4599 44.1875 10.4599C45.125 10.5064 45.9922 10.6574 46.7891 10.9128C47.6094 11.1684 48.3125 11.4702 48.8984 11.8186C49.5078 12.1438 50 12.4922 50.375 12.8638C50.75 13.2354 50.9727 13.5606 51.043 13.8393C51.3242 14.7451 51.3945 15.5813 51.2539 16.3477C51.1133 17.0909 50.9258 17.8225 50.6914 18.5426C50.4805 19.2393 50.293 19.9361 50.1289 20.6328C49.9883 21.3297 50.0469 22.0845 50.3047 22.8974C50.3984 23.1064 50.4922 23.3155 50.5859 23.5245C50.6797 23.7103 50.7969 23.8961 50.9375 24.0819C51.0781 24.2677 51.2422 24.4187 51.4297 24.5348C51.1719 24.5116 50.9141 24.5 50.6562 24.5C50.3984 24.4767 50.1641 24.4535 49.9531 24.4303C49.6953 24.4071 49.4609 24.3839 49.25 24.3607C49.0156 24.3374 48.6992 24.3258 48.3008 24.3258C47.6211 24.3258 46.5664 24.3607 45.1367 24.4303C45.3477 23.9426 45.5117 23.5361 45.6289 23.211C45.7695 22.8625 45.8867 22.5839 45.9805 22.3748C46.0742 22.1193 46.1445 21.9219 46.1914 21.7826C46.4727 21.109 46.6367 20.3426 46.6836 19.4832C46.7539 18.6238 46.6953 17.7529 46.5078 16.8703C46.4375 16.5684 46.3203 16.2084 46.1562 15.7903C45.9922 15.3722 45.7695 14.9658 45.4883 14.5709C45.2305 14.1761 44.9141 13.8393 44.5391 13.5606C44.1875 13.2819 43.7773 13.1193 43.3086 13.0728C42.8398 13.0264 42.3125 13.1425 41.7266 13.4212C41.1641 13.6999 40.5547 14.2109 39.8984 14.9542C39.4062 15.5813 39.0195 16.3477 38.7383 17.2535C38.4805 18.0199 38.3047 18.9839 38.2109 20.1451C38.1172 21.2832 38.2578 22.6186 38.6328 24.1516C38.3047 24.1051 38 24.0819 37.7188 24.0819C37.4375 24.0587 37.2031 24.0354 37.0156 24.0122C36.7812 23.9891 36.5703 23.9658 36.3828 23.9426C36.1719 23.9426 35.9375 23.931 35.6797 23.9077C35.4453 23.9077 35.1523 23.9077 34.8008 23.9077C34.4492 23.8845 34.0391 23.8612 33.5703 23.838ZM63.2148 22.0612C63.8711 22.0612 64.4805 21.9916 65.043 21.8522C65.5117 21.7361 65.957 21.5503 66.3789 21.2948C66.8242 21.0161 67.1172 20.6096 67.2578 20.0754C67.7266 20.1684 68.125 20.2496 68.4531 20.3193C68.7812 20.3658 69.0625 20.4122 69.2969 20.4587C69.5547 20.5284 69.7773 20.5748 69.9648 20.5981C70.1523 20.6445 70.375 20.6909 70.6328 20.7374C70.8672 20.7839 71.1484 20.8419 71.4766 20.9116C71.8281 20.9581 72.2383 21.0277 72.707 21.1206C72.3555 21.0742 71.9922 21.109 71.6172 21.2251C71.2656 21.3413 70.9258 21.469 70.5977 21.6084C70.2227 21.771 69.8711 21.9684 69.543 22.2007C69.332 22.34 69.0859 22.549 68.8047 22.8277C68.5469 23.1064 68.1719 23.3736 67.6797 23.629C67.1875 23.8845 66.5312 24.1051 65.7109 24.2909C64.9141 24.4535 63.8828 24.5116 62.6172 24.4651C61.0938 24.4187 59.8164 24.1516 58.7852 23.6638C57.7539 23.1529 56.9219 22.5374 56.2891 21.8174C55.6562 21.0742 55.1992 20.2729 54.918 19.4135C54.6367 18.5542 54.4844 17.7529 54.4609 17.0097C54.4375 16.2664 54.6602 15.4883 55.1289 14.6754C55.5977 13.8625 56.2539 13.1193 57.0977 12.4457C57.9648 11.7722 59.0078 11.2263 60.2266 10.8083C61.4453 10.367 62.7812 10.1464 64.2344 10.1464C65.0781 10.1464 65.8516 10.2509 66.5547 10.4599C67.2812 10.6457 67.9375 10.9012 68.5234 11.2263C69.1328 11.5516 69.6602 11.9232 70.1055 12.3412C70.5508 12.7361 70.9258 13.1425 71.2305 13.5606C71.5352 14.0019 71.793 14.4664 72.0039 14.9542C72.1914 15.3722 72.3438 15.8483 72.4609 16.3826C72.5781 16.9167 72.6133 17.4625 72.5664 18.0199C70.7852 18.0664 69.3438 18.1013 68.2422 18.1245C67.1641 18.1477 66.3203 18.1593 65.7109 18.1593H64.1289H62.9336C62.5117 18.1593 61.9609 18.171 61.2812 18.1942C60.6016 18.2173 59.7695 18.2522 58.7852 18.2987C58.9023 19.2277 59.1953 19.9477 59.6641 20.4587C60.1562 20.9464 60.6719 21.318 61.2109 21.5736C61.8203 21.8522 62.4883 22.0148 63.2148 22.0612ZM60.0508 15.7903C60.8008 15.8367 61.4219 15.8716 61.9141 15.8948C62.4297 15.918 62.8516 15.9413 63.1797 15.9645C63.5312 15.9877 63.8125 15.9994 64.0234 15.9994H64.9023C65.4883 15.9994 66.5781 15.9645 68.1719 15.8948C68.1016 14.8728 67.8789 14.0948 67.5039 13.5606C67.1523 13.0264 66.7773 12.6315 66.3789 12.3761C65.9102 12.0974 65.3945 11.9348 64.832 11.8883C63.3086 11.9116 62.1719 12.2251 61.4219 12.8289C60.6953 13.4328 60.2383 14.4199 60.0508 15.7903ZM87.1289 1.40184C88.3945 1.44829 89.6719 1.68055 90.9609 2.09862C92.2734 2.49346 93.4805 3.14378 94.582 4.04959C95.6836 4.93218 96.6211 6.08185 97.3945 7.49864C98.168 8.89219 98.6484 10.5993 98.8359 12.6199C99 14.269 98.7891 15.9064 98.2031 17.5322C97.6406 19.1348 96.8555 20.6096 95.8477 21.9568C94.8398 23.3039 93.6797 24.4535 92.3672 25.4058C91.0547 26.3348 89.7422 26.9503 88.4297 27.2522C87.6328 27.438 86.7539 27.4613 85.793 27.3219C84.8555 27.1594 83.8945 26.869 82.9102 26.4509C81.9492 26.0097 81 25.4522 80.0625 24.7787C79.1484 24.1051 78.3164 23.3387 77.5664 22.4793C76.8164 21.5968 76.1836 20.6445 75.668 19.6225C75.1758 18.6007 74.8711 17.5322 74.7539 16.4173C74.6367 15.4883 74.625 14.4664 74.7188 13.3516C74.8359 12.2134 75.0586 11.087 75.3867 9.97219C75.7383 8.83413 76.2188 7.7425 76.8281 6.69735C77.4609 5.62895 78.2578 4.69992 79.2188 3.91024C80.1797 3.09733 81.3047 2.47023 82.5938 2.02894C83.9062 1.56442 85.418 1.35539 87.1289 1.40184ZM80.8359 15.5116C80.5078 17.9968 80.7422 19.9942 81.5391 21.5038C82.3594 23.0135 83.5898 23.931 85.2305 24.2561C86.0273 24.4187 86.7891 24.2561 87.5156 23.7684C88.2656 23.2574 88.9453 22.5258 89.5547 21.5736C90.1641 20.6212 90.6914 19.5064 91.1367 18.229C91.582 16.9516 91.9102 15.616 92.1211 14.2225C92.332 12.8289 92.3438 11.5748 92.1562 10.4599C91.9922 9.32187 91.6992 8.358 91.2773 7.56831C90.8555 6.75541 90.3398 6.12831 89.7305 5.68702C89.1445 5.24572 88.5352 5.00185 87.9023 4.9554C86.8008 4.88572 85.8398 5.17605 85.0195 5.82637C84.1992 6.45347 83.5078 7.27799 82.9453 8.29993C82.3828 9.32188 81.9258 10.4715 81.5742 11.749C81.2461 13.0264 81 14.2806 80.8359 15.5116ZM101.727 23.838C101.891 23.0716 102.008 22.3981 102.078 21.8174C102.172 21.2135 102.242 20.7142 102.289 20.3193C102.336 19.8548 102.359 19.4599 102.359 19.1348C102.336 18.74 102.312 18.2754 102.289 17.7413C102.289 17.1839 102.266 16.638 102.219 16.1038C102.195 15.5464 102.16 15.0586 102.113 14.6406C102.066 14.1993 102.008 13.8857 101.938 13.6999C101.844 13.5141 101.715 13.3167 101.551 13.1077C101.223 12.7128 100.742 12.3296 100.109 11.958C100.648 11.8418 101.105 11.749 101.48 11.6793C101.879 11.5864 102.207 11.5051 102.465 11.4354C102.746 11.3425 102.992 11.2612 103.203 11.1916C103.391 11.1219 103.613 11.0522 103.871 10.9826C104.082 10.9361 104.34 10.878 104.645 10.8083C104.949 10.7386 105.301 10.6574 105.699 10.5645L105.594 13.7348C106.344 12.8522 107.105 12.1903 107.879 11.749C108.652 11.3077 109.379 10.9942 110.059 10.8083C110.832 10.5761 111.594 10.4599 112.344 10.4599C113.281 10.5064 114.148 10.6574 114.945 10.9128C115.766 11.1684 116.469 11.4702 117.055 11.8186C117.664 12.1438 118.156 12.4922 118.531 12.8638C118.906 13.2354 119.129 13.5606 119.199 13.8393C119.48 14.7451 119.551 15.5813 119.41 16.3477C119.27 17.0909 119.082 17.8225 118.848 18.5426C118.637 19.2393 118.449 19.9361 118.285 20.6328C118.145 21.3297 118.203 22.0845 118.461 22.8974C118.555 23.1064 118.648 23.3155 118.742 23.5245C118.836 23.7103 118.953 23.8961 119.094 24.0819C119.234 24.2677 119.398 24.4187 119.586 24.5348C119.328 24.5116 119.07 24.5 118.812 24.5C118.555 24.4767 118.32 24.4535 118.109 24.4303C117.852 24.4071 117.617 24.3839 117.406 24.3607C117.172 24.3374 116.855 24.3258 116.457 24.3258C115.777 24.3258 114.723 24.3607 113.293 24.4303C113.504 23.9426 113.668 23.5361 113.785 23.211C113.926 22.8625 114.043 22.5839 114.137 22.3748C114.23 22.1193 114.301 21.9219 114.348 21.7826C114.629 21.109 114.793 20.3426 114.84 19.4832C114.91 18.6238 114.852 17.7529 114.664 16.8703C114.594 16.5684 114.477 16.2084 114.312 15.7903C114.148 15.3722 113.926 14.9658 113.645 14.5709C113.387 14.1761 113.07 13.8393 112.695 13.5606C112.344 13.2819 111.934 13.1193 111.465 13.0728C110.996 13.0264 110.469 13.1425 109.883 13.4212C109.32 13.6999 108.711 14.2109 108.055 14.9542C107.562 15.5813 107.176 16.3477 106.895 17.2535C106.637 18.0199 106.461 18.9839 106.367 20.1451C106.273 21.2832 106.414 22.6186 106.789 24.1516C106.461 24.1051 106.156 24.0819 105.875 24.0819C105.594 24.0587 105.359 24.0354 105.172 24.0122C104.938 23.9891 104.727 23.9658 104.539 23.9426C104.328 23.9426 104.094 23.931 103.836 23.9077C103.602 23.9077 103.309 23.9077 102.957 23.9077C102.605 23.8845 102.195 23.8612 101.727 23.838ZM131.371 22.0612C132.027 22.0612 132.637 21.9916 133.199 21.8522C133.668 21.7361 134.113 21.5503 134.535 21.2948C134.98 21.0161 135.273 20.6096 135.414 20.0754C135.883 20.1684 136.281 20.2496 136.609 20.3193C136.938 20.3658 137.219 20.4122 137.453 20.4587C137.711 20.5284 137.934 20.5748 138.121 20.5981C138.309 20.6445 138.531 20.6909 138.789 20.7374C139.023 20.7839 139.305 20.8419 139.633 20.9116C139.984 20.9581 140.395 21.0277 140.863 21.1206C140.512 21.0742 140.148 21.109 139.773 21.2251C139.422 21.3413 139.082 21.469 138.754 21.6084C138.379 21.771 138.027 21.9684 137.699 22.2007C137.488 22.34 137.242 22.549 136.961 22.8277C136.703 23.1064 136.328 23.3736 135.836 23.629C135.344 23.8845 134.688 24.1051 133.867 24.2909C133.07 24.4535 132.039 24.5116 130.773 24.4651C129.25 24.4187 127.973 24.1516 126.941 23.6638C125.91 23.1529 125.078 22.5374 124.445 21.8174C123.812 21.0742 123.355 20.2729 123.074 19.4135C122.793 18.5542 122.641 17.7529 122.617 17.0097C122.594 16.2664 122.816 15.4883 123.285 14.6754C123.754 13.8625 124.41 13.1193 125.254 12.4457C126.121 11.7722 127.164 11.2263 128.383 10.8083C129.602 10.367 130.938 10.1464 132.391 10.1464C133.234 10.1464 134.008 10.2509 134.711 10.4599C135.438 10.6457 136.094 10.9012 136.68 11.2263C137.289 11.5516 137.816 11.9232 138.262 12.3412C138.707 12.7361 139.082 13.1425 139.387 13.5606C139.691 14.0019 139.949 14.4664 140.16 14.9542C140.348 15.3722 140.5 15.8483 140.617 16.3826C140.734 16.9167 140.77 17.4625 140.723 18.0199C138.941 18.0664 137.5 18.1013 136.398 18.1245C135.32 18.1477 134.477 18.1593 133.867 18.1593H132.285H131.09C130.668 18.1593 130.117 18.171 129.438 18.1942C128.758 18.2173 127.926 18.2522 126.941 18.2987C127.059 19.2277 127.352 19.9477 127.82 20.4587C128.312 20.9464 128.828 21.318 129.367 21.5736C129.977 21.8522 130.645 22.0148 131.371 22.0612ZM128.207 15.7903C128.957 15.8367 129.578 15.8716 130.07 15.8948C130.586 15.918 131.008 15.9413 131.336 15.9645C131.688 15.9877 131.969 15.9994 132.18 15.9994H133.059C133.645 15.9994 134.734 15.9645 136.328 15.8948C136.258 14.8728 136.035 14.0948 135.66 13.5606C135.309 13.0264 134.934 12.6315 134.535 12.3761C134.066 12.0974 133.551 11.9348 132.988 11.8883C131.465 11.9116 130.328 12.2251 129.578 12.8289C128.852 13.4328 128.395 14.4199 128.207 15.7903ZM143.543 3.10894C143.988 3.43411 144.434 3.67798 144.879 3.84056C145.348 3.97992 145.77 4.07282 146.145 4.11928C146.566 4.18895 146.988 4.20057 147.41 4.15411C147.809 4.10766 148.219 3.9683 148.641 3.73605C149.062 3.50378 149.555 3.25992 150.117 3.00443C150.68 2.74894 151.336 2.5283 152.086 2.34249C152.859 2.13346 153.785 2.02894 154.863 2.02894C155.332 2.02894 155.824 2.12184 156.34 2.30765C156.879 2.49346 157.395 2.73733 157.887 3.03927C158.379 3.31798 158.824 3.63153 159.223 3.97992C159.645 4.3283 159.961 4.6767 160.172 5.02508C160.406 5.37347 160.57 5.9425 160.664 6.73218C160.758 7.49864 160.793 8.33477 160.77 9.24058C160.746 10.1464 160.664 11.0406 160.523 11.9232C160.406 12.8058 160.23 13.5258 159.996 14.0832C159.715 14.5709 159.176 15.1981 158.379 15.9645C157.699 16.6148 156.68 17.4509 155.32 18.4729C153.961 19.4948 152.133 20.7142 149.836 22.131C151.195 22.1077 152.332 22.0729 153.246 22.0264C154.184 21.9568 154.945 21.8871 155.531 21.8174C156.211 21.7245 156.75 21.6315 157.148 21.5387C157.5 21.3994 157.875 21.202 158.273 20.9464C158.602 20.7142 158.953 20.4123 159.328 20.0406C159.727 19.669 160.113 19.1813 160.488 18.5774C160.559 19.8315 160.629 20.8186 160.699 21.5387C160.746 21.9568 160.781 22.3168 160.805 22.6186C160.828 22.8974 160.852 23.2225 160.875 23.5942C160.898 23.9193 160.91 24.2909 160.91 24.709C160.934 25.1271 160.969 25.5684 161.016 26.0329C159.844 25.731 158.777 25.4987 157.816 25.3361C156.855 25.1503 156.035 25.0225 155.355 24.9529C154.559 24.86 153.844 24.8135 153.211 24.8135C152.555 24.8367 151.828 24.8948 151.031 24.9878C150.328 25.0806 149.484 25.2199 148.5 25.4058C147.539 25.5684 146.449 25.8123 145.23 26.1374C145.137 25.8819 145.055 25.6264 144.984 25.371C144.914 25.0922 144.855 24.8251 144.809 24.5697C144.738 24.2909 144.68 24.0122 144.633 23.7335C144.586 23.4548 144.539 23.1878 144.492 22.9323C144.445 22.7 144.41 22.4561 144.387 22.2007C144.363 21.9452 144.34 21.7013 144.316 21.469C146.191 20.2845 147.715 19.2161 148.887 18.2638C150.059 17.2883 150.984 16.4638 151.664 15.7903C152.438 15.0006 153.023 14.2806 153.422 13.6302C153.82 12.8406 154.148 11.9696 154.406 11.0173C154.664 10.0651 154.746 9.18251 154.652 8.36961C154.582 7.5567 154.301 6.89477 153.809 6.38379C153.316 5.8496 152.531 5.61734 151.453 5.68702C150.75 5.73347 150.082 5.97735 149.449 6.41864C148.84 6.85993 148.277 7.39412 147.762 8.02122C147.246 8.64832 146.789 9.32187 146.391 10.0419C145.992 10.7386 145.652 11.4006 145.371 12.0276C145.113 12.6548 144.902 13.1774 144.738 13.5955C144.598 14.0135 144.527 14.2341 144.527 14.2573C144.504 14.3038 144.469 14.1296 144.422 13.7348C144.398 13.34 144.363 12.8522 144.316 12.2715C144.293 11.6677 144.258 11.0406 144.211 10.3903C144.164 9.73993 144.117 9.19413 144.07 8.75284C144.047 8.40444 144.012 7.95154 143.965 7.39412C143.895 6.48831 143.754 5.05992 143.543 3.10894ZM164.363 6.07024C165.184 5.81476 165.852 5.60572 166.367 5.44314C166.883 5.25734 167.305 5.10637 167.633 4.99024C168.008 4.85089 168.289 4.72314 168.477 4.60701L169.32 4.18895C169.648 4.02637 170.07 3.81734 170.586 3.56185C171.102 3.28313 171.77 2.93475 172.59 2.51669C172.402 3.39927 172.262 4.2354 172.168 5.02508C172.098 5.79154 172.039 6.4767 171.992 7.08058C171.922 7.77735 171.887 8.41606 171.887 8.99671C171.863 9.48445 171.828 10.1348 171.781 10.9477C171.758 11.7606 171.723 12.6431 171.676 13.5955C171.629 14.5477 171.582 15.5232 171.535 16.5219C171.488 17.5206 171.453 18.4612 171.43 19.3439C171.43 20.2032 171.441 20.9464 171.465 21.5736C171.512 22.2007 171.594 22.6303 171.711 22.8625C171.828 23.1413 171.98 23.4084 172.168 23.6638C172.332 23.8961 172.52 24.1632 172.73 24.4651C172.965 24.7439 173.246 25.0225 173.574 25.3013C173.035 25.4174 172.531 25.5219 172.062 25.6148C171.594 25.6845 171.184 25.7426 170.832 25.7891C170.41 25.8587 170.035 25.9168 169.707 25.9632C169.355 25.9865 168.875 26.0445 168.266 26.1374C167.75 26.2071 167.094 26.3 166.297 26.4161C165.5 26.509 164.516 26.6135 163.344 26.7297C163.953 26.3581 164.434 25.9981 164.785 25.6496C165.16 25.3013 165.441 24.9994 165.629 24.7439C165.84 24.4419 165.969 24.1516 166.016 23.8729C166.039 23.6871 166.074 23.1878 166.121 22.3748C166.191 21.5387 166.25 20.5632 166.297 19.4483C166.367 18.3103 166.426 17.1025 166.473 15.8251C166.543 14.5245 166.59 13.3167 166.613 12.2019C166.637 11.087 166.648 10.1348 166.648 9.34509C166.648 8.55542 166.613 8.07929 166.543 7.91671C166.449 7.75412 166.309 7.56831 166.121 7.35929C165.957 7.17348 165.734 6.97606 165.453 6.76702C165.195 6.55799 164.832 6.32573 164.363 6.07024Z" fill="#394BA7"/>
</svg>
