<svg width="122" height="47" viewBox="0 0 122 47" fill="none" xmlns="http://www.w3.org/2000/svg">
<g clip-path="url(#clip0_7735_140)">
<path d="M8.92188 45.1396C12.6953 45.1396 16.2578 43.2815 18.9531 41.4234C20.5 40.3318 21.9531 39.1008 23.3359 37.6841L20.3125 34.5718C17.875 36.9176 13.0469 40.2156 9.29688 40.2156C8.10156 40.2156 7.30469 39.7976 6.34375 38.1021C11.8047 36.6156 15.8359 32.5047 15.8359 28.6724C15.8359 25.1654 13.1641 22.8659 9.67188 22.8659C3.25 22.8659 0.109375 30.2053 0.109375 35.4544C0.109375 40.5872 3.03906 45.1396 8.92188 45.1396ZM5.80469 34.2234C5.80469 32.1563 6.17969 27.3021 10.1875 27.3021C10.9375 27.3021 11.5234 28.3008 11.5234 29.6944C11.5234 31.6453 8.03125 34.2234 5.80469 34.2234ZM27.1875 26.1873C31.5469 20.9382 36.4688 14.0633 36.4688 8.18721C36.4688 3.98333 35.7422 0.545898 30.9844 0.545898C24.6328 0.545898 20.9062 17.2453 19.4062 26.3499C18.6562 30.9021 18.2578 34.6414 18 37.3589C17.8594 38.9383 17.7656 40.3551 17.7188 41.6092C18.8438 42.2828 20.0156 42.8634 21.2578 43.3745C23.3906 44.2802 26.1094 45.1396 28.7578 45.1396H29.3438C29.9297 44.9073 30.4922 44.675 31.0078 44.4195C31.9219 43.9782 32.9297 43.4441 33.4688 42.9099C37.875 41.9112 41.1328 40.5409 44.5781 37.4518L42.7734 33.6195C40.2891 36.0815 37.9922 37.1267 35.7188 38.4505C37.5703 35.6169 37.9688 33.2014 37.9688 30.066C37.9688 26.3034 35.7891 22.8427 32.1328 22.8427C30.7031 22.8427 29.3203 24.2827 27.5625 26.4427L27.1875 26.1873ZM29.6719 28.1383C32.1328 28.1383 32.7188 29.5086 32.7188 31.0414C32.7188 34.595 31.3594 40.6802 28.125 40.6802C27.2109 40.6802 26.1797 40.4944 25.2656 40.3086C24.75 40.1924 24.2344 40.0763 23.7188 39.9138C23.7656 39.3796 23.8125 38.7989 23.8828 38.1719C24 37.0802 24.1875 35.6634 24.4688 33.9911C25.1484 29.8569 27.4922 28.1383 29.6719 28.1383ZM31.9688 6.86334C31.5 13.4594 27.0234 19.475 24.4688 24.3524C25.2188 20.2646 28.1953 5.00527 30.7734 5.00527C31.8281 5.00527 31.9688 6.60785 31.9688 6.86334ZM42.7812 38.3576C42.9688 41.3073 43.0156 45.395 46.6484 45.395C48.8281 45.395 51.7578 40.9357 53.5859 37.1963C53.6562 39.5189 55.6719 41.7719 59.0234 41.7719C61.0156 41.7719 63.3125 40.9357 65.375 39.635V34.177C64.6953 34.6182 64.0391 35.0363 63.4062 35.3847C62.3047 36.0118 60.9688 36.5693 60.0312 36.5693C57.5 36.5693 56.8672 35.0595 56.8672 33.5731C56.8672 32.8531 56.9844 32.1796 57.1484 31.6453C57.2188 31.3434 57.3125 31.0647 57.4297 30.786C58.8125 27.7434 59.7969 26.4892 59.7969 24.7938C59.7969 23.6556 58.6016 22.8427 56.7969 22.8427C55.4375 22.8427 54.2656 23.6324 54.0781 24.4918L47.9141 39.0544L47.5859 39.0776L48.5 24.3757C48.4766 23.5628 47.8672 22.8427 46.8125 22.8427C46.6484 22.8427 46.5312 22.8659 46.3672 22.8892L43.5547 23.3305C42.5469 23.493 42.3594 25.3279 42.3594 28.5099C42.3594 30.9718 42.5469 32.9693 42.7344 37.6143L42.7812 38.3576ZM77.2656 40.7034C77.2656 38.2879 75.9062 36.9409 73.3047 36.9409C70.2812 36.9409 69.0156 39.1241 69.0156 41.3769C69.0156 44.0247 70.5625 45.1396 72.8594 45.1396C77.1953 45.1396 77.2656 41.0983 77.2656 40.7034ZM95.7656 35.4776C93.7031 37.1499 90.1875 40.6802 87.9609 40.6802C87 40.6802 86.7656 39.7976 86.7656 38.404C86.7656 34.1073 89.9062 26.2337 89.9062 24.1666C89.9062 23.3537 89.5312 22.8427 88.2188 22.8427C86.8125 22.8427 84.3984 23.493 83.9531 25.0956C82.8281 29.7408 80.7656 36.546 80.7656 40.4712C80.7656 43.2815 81.8672 45.1396 85.125 45.1396C88.7344 45.1396 93.5156 42.2363 95.7656 40.1924V35.4776ZM85.2891 16.3163C85.2891 18.453 86.5781 19.8466 89.3203 19.8466C92.5078 19.8466 93.8672 17.7795 93.8672 15.6891C93.8672 13.3666 92.0625 12.4375 89.8828 12.4375C86.4141 12.4375 85.2891 14.8995 85.2891 16.3163ZM104.938 27.5808C105.031 27.4879 105.008 34.1538 105.289 35.4079C104.938 36.3138 104.539 37.1034 104.094 37.8234C103.344 39.0544 102.266 40.2389 101.141 40.2389C98.9609 40.2389 98.5156 38.8686 98.5156 37.6376C98.5156 34.5254 100.789 29.5783 104.938 27.5808ZM120.359 35.2221C119.422 36.0118 118.531 36.7086 117.664 37.3357C116.141 38.404 114.406 39.4492 113.234 39.4492C111.992 39.4492 111.594 37.8234 111.594 36.0582C111.594 34.6647 111.992 32.8763 112.297 32.0401C115.555 24.2362 119.422 17.8259 120.242 9.04656C120.289 8.46592 120.312 7.9085 120.312 7.3743C120.312 3.82075 119.234 0.545898 116.281 0.545898C110.328 0.545898 105.125 12.2053 104.844 24.1202C97.7188 24.7705 92.8906 31.5525 92.8906 37.475C92.8906 41.3538 94.8125 45.1396 98.8438 45.1396C101.703 45.1396 104.633 43.235 106.953 41.0053C108.453 44.6053 111.312 45.1164 112.18 45.1164C113.727 45.1164 115.953 43.9782 117.781 42.8634C118.859 42.1898 119.961 41.4466 121.062 40.5872L120.359 35.2221ZM115.953 10.7421C115.648 14.017 114.289 18.1976 113.023 21.6349C112.273 23.6324 111.453 25.6298 110.562 27.6505V27.4182C110.562 26.4892 110.562 23.8414 110.82 20.7757C111.008 18.5227 112.227 5.9343 115.227 5.9343C115.789 5.9343 116.094 6.49172 116.094 8.16398C116.094 8.79108 116.047 9.65044 115.953 10.7421Z" fill="black"/>
</g>
<defs>
<clipPath id="clip0_7735_140">
<rect width="122" height="45.5846" fill="white" transform="translate(0 0.545898)"/>
</clipPath>
</defs>
</svg>
