<svg width="80" height="27" viewBox="0 0 80 27" fill="none" xmlns="http://www.w3.org/2000/svg">
<path d="M4.26411 2.60089C4.26411 3.21925 4.25211 3.94464 4.22811 4.77706C4.20411 5.58569 4.18011 6.20406 4.15611 6.63216C4.08411 7.8451 4.04811 9.05805 4.04811 10.271C4.04811 11.1748 4.08411 12.1142 4.15611 13.0893C4.90011 12.0191 5.70411 11.2342 6.56811 10.7348C7.43211 10.2353 8.47611 9.9856 9.70011 9.9856C10.5881 9.9856 11.4161 10.378 12.1841 11.1629C12.9521 11.9477 13.4441 12.8634 13.6601 13.9098C13.7321 14.8374 13.7681 15.9671 13.7681 17.299C13.7681 18.1552 13.8161 19.273 13.9121 20.6524C13.9601 21.1756 14.0921 21.6632 14.3081 22.1151C14.5481 22.567 14.8841 22.7929 15.3161 22.7929C15.5321 22.7929 15.7001 22.781 15.8201 22.7572C15.9641 22.7334 16.0961 22.7215 16.2161 22.7215C16.5521 22.7215 16.7801 22.8048 16.9001 22.9713C17.0441 23.1378 17.1161 23.3756 17.1161 23.6848C17.1161 24.2556 16.8281 24.6837 16.2521 24.9691C15.6761 25.2545 15.1481 25.3972 14.6681 25.3972C12.9401 25.3972 11.7521 24.6837 11.1041 23.2567C10.7441 22.448 10.5161 21.4016 10.4201 20.1173C10.3241 18.8092 10.2761 17.2871 10.2761 15.5509C10.2761 13.8385 9.68811 12.9823 8.51211 12.9823C7.86411 12.9823 7.20411 13.3272 6.53211 14.0169C5.88411 14.6828 5.34411 15.5747 4.91211 16.6925C4.48011 17.7865 4.26411 18.9281 4.26411 20.1173L4.30011 23.8275C4.30011 24.3507 4.09611 24.7431 3.68811 25.0047C3.28011 25.2426 2.89611 25.3615 2.53611 25.3615C2.00811 25.3615 1.52811 25.2069 1.09611 24.8977C0.664109 24.5648 0.448109 24.1961 0.448109 23.7918C0.616109 22.0081 0.700109 19.0232 0.700109 14.8374C0.700109 14.0763 0.640109 11.258 0.520109 6.38243L0.412109 3.10034C0.412109 2.57711 0.652109 2.12522 1.13211 1.74469C1.61211 1.34037 2.15211 1.13822 2.75211 1.13822C3.28011 1.13822 3.66411 1.25713 3.90411 1.49497C4.14411 1.7328 4.26411 2.10144 4.26411 2.60089ZM21.6152 2.31549C22.4552 2.38684 23.1872 2.61278 23.8112 2.99331C24.4352 3.35006 24.7472 3.89708 24.7472 4.63436C24.7472 5.18138 24.4832 5.62137 23.9552 5.95433C23.4512 6.26351 22.8392 6.41811 22.1192 6.41811C21.4232 6.41811 20.9432 6.23973 20.6792 5.88298C20.4152 5.52623 20.2832 5.15759 20.2832 4.77706C20.2832 4.06356 20.3552 3.46898 20.4992 2.99331C20.6672 2.51765 21.0392 2.29171 21.6152 2.31549ZM24.4952 18.1195V19.1541C24.4952 20.0816 24.5192 20.9616 24.5672 21.794C24.6392 22.6026 24.7232 23.4232 24.8192 24.2556C24.7952 24.4934 24.6152 24.7431 24.2792 25.0047C23.9432 25.2426 23.6432 25.3615 23.3792 25.3615C22.9232 25.3615 22.4552 25.2783 21.9752 25.1118C21.5192 24.9215 21.2432 24.6956 21.1472 24.4339C21.0032 23.6729 20.9312 22.9951 20.9312 22.4005C20.9312 20.4502 20.8712 18.2622 20.7512 15.8363C20.6552 13.6958 20.6072 12.1974 20.6072 11.3412C20.6072 10.9131 20.8232 10.5445 21.2552 10.2353C21.6872 9.92614 22.1432 9.77155 22.6232 9.77155C23.3192 9.77155 23.7992 9.92614 24.0632 10.2353C24.3512 10.5445 24.4952 11.0321 24.4952 11.698V18.1195ZM36.9061 4.20626C36.1861 4.20626 35.7421 4.80084 35.5741 5.99001C35.4061 7.60727 35.3221 8.83211 35.3221 9.66453C35.8021 9.71209 36.3061 9.73588 36.8341 9.73588C37.1701 9.73588 37.6021 9.71209 38.1301 9.66453L39.0661 9.62885C39.5461 9.62885 39.9061 9.71209 40.1461 9.87858C40.3861 10.0451 40.5061 10.3186 40.5061 10.6991C40.5061 11.2223 40.3261 11.6742 39.9661 12.0547C39.6301 12.4115 39.2341 12.5899 38.7781 12.5899C37.0501 12.5899 35.8861 12.6731 35.2861 12.8396C35.2861 14.2904 35.3581 16.3476 35.5021 19.0114L35.5741 20.7594L35.7181 23.5421C35.7661 24.2318 35.6941 24.7193 35.5021 25.0047C35.3341 25.2664 34.9621 25.3972 34.3861 25.3972C33.3301 25.3972 32.6461 24.7669 32.3341 23.5064C32.1421 22.5788 31.9861 21.2827 31.8661 19.6178C31.7461 17.953 31.6861 16.4665 31.6861 15.1585C31.6861 14.4687 31.7221 13.6839 31.7941 12.8039C31.7461 12.7801 31.6141 12.7682 31.3981 12.7682C31.1821 12.7682 31.0261 12.7801 30.9301 12.8039C30.2101 12.8515 29.6821 12.8753 29.3461 12.8753C29.1301 12.8753 28.9141 12.7326 28.6981 12.4472C28.4821 12.138 28.3741 11.7693 28.3741 11.3412C28.3741 11.1034 28.4581 10.8894 28.6261 10.6991C28.7941 10.485 28.9981 10.3305 29.2381 10.2353C29.5981 10.0451 30.1141 9.94992 30.7861 9.94992L31.8661 9.9856C31.8661 6.60837 32.2501 4.26572 33.0181 2.95764C33.7381 1.72091 34.9261 1.10254 36.5821 1.10254C37.5421 1.10254 38.4181 1.34037 39.2101 1.81604C39.5461 2.03009 39.7981 2.29171 39.9661 2.60089C40.1581 2.91007 40.2541 3.20736 40.2541 3.49276C40.2541 3.84951 40.1101 4.21815 39.8221 4.59868C39.5581 4.97922 39.1501 5.16948 38.5981 5.16948C38.3821 5.16948 38.1061 5.003 37.7701 4.67003C37.6501 4.55112 37.5181 4.44409 37.3741 4.34896C37.2301 4.25383 37.0741 4.20626 36.9061 4.20626ZM47.5924 19.6892C47.5924 20.5929 47.7244 21.2946 47.9884 21.794C48.2764 22.2697 48.6364 22.5075 49.0684 22.5075C49.3084 22.5075 49.5364 22.4956 49.7524 22.4718C49.9684 22.4243 50.1844 22.4005 50.4004 22.4005C50.6404 22.4005 50.8444 22.5194 51.0124 22.7572C51.2044 22.9951 51.3004 23.2567 51.3004 23.5421C51.3004 24.1129 51.0244 24.5648 50.4724 24.8977C49.9444 25.2069 49.2244 25.3615 48.3124 25.3615C47.6644 25.3615 47.0044 25.1712 46.3324 24.7907C45.6844 24.3864 45.1444 23.768 44.7124 22.9356C44.2804 22.0794 44.0644 21.021 44.0644 19.7605C44.0644 17.0492 44.1124 14.7541 44.2084 12.8753C44.3284 10.6396 44.3884 7.82132 44.3884 4.42031C44.3884 3.35006 44.4484 2.60089 44.5684 2.17279C44.7124 1.83982 44.9404 1.5901 45.2524 1.42361C45.5884 1.23335 45.9364 1.13822 46.2964 1.13822C46.6564 1.13822 46.9684 1.19767 47.2324 1.31659C47.5204 1.43551 47.7124 1.62577 47.8084 1.88739C47.9044 2.17279 47.9644 2.45819 47.9884 2.74359C48.0364 3.0052 48.0604 3.38574 48.0604 3.88519C48.0604 4.8603 48.0244 5.79974 47.9524 6.70351C47.9044 7.79754 47.8804 8.59428 47.8804 9.09373C47.6884 13.2796 47.5924 16.8114 47.5924 19.6892ZM56.0918 2.31549C56.9318 2.38684 57.6638 2.61278 58.2878 2.99331C58.9118 3.35006 59.2238 3.89708 59.2238 4.63436C59.2238 5.18138 58.9598 5.62137 58.4318 5.95433C57.9278 6.26351 57.3158 6.41811 56.5958 6.41811C55.8998 6.41811 55.4198 6.23973 55.1558 5.88298C54.8918 5.52623 54.7598 5.15759 54.7598 4.77706C54.7598 4.06356 54.8318 3.46898 54.9758 2.99331C55.1438 2.51765 55.5158 2.29171 56.0918 2.31549ZM58.9718 18.1195V19.1541C58.9718 20.0816 58.9958 20.9616 59.0438 21.794C59.1158 22.6026 59.1998 23.4232 59.2958 24.2556C59.2958 24.541 59.1278 24.8026 58.7918 25.0404C58.4558 25.2545 58.1438 25.3615 57.8558 25.3615C57.3998 25.3615 56.9318 25.2783 56.4518 25.1118C55.9958 24.9215 55.7198 24.6956 55.6238 24.4339C55.4798 23.6729 55.4078 22.9951 55.4078 22.4005C55.4078 20.4502 55.3478 18.2622 55.2278 15.8363C55.1318 13.6958 55.0838 12.1974 55.0838 11.3412C55.0838 10.9131 55.2998 10.5445 55.7318 10.2353C56.1638 9.92614 56.6198 9.77155 57.0998 9.77155C57.7958 9.77155 58.2758 9.92614 58.5398 10.2353C58.8278 10.5445 58.9718 11.0321 58.9718 11.698V18.1195ZM76.1347 9.48615C76.6147 9.48615 76.9867 9.60507 77.2507 9.8429C77.5387 10.0569 77.6827 10.3305 77.6827 10.6634C77.6827 10.9013 77.6347 11.151 77.5387 11.4126C77.4667 11.6504 77.3827 11.9002 77.2867 12.1618C76.7347 13.4461 75.5707 15.2417 73.7947 17.5487C75.6187 19.8794 77.0947 21.3778 78.2227 22.0437C78.3187 22.0913 78.4987 22.1745 78.7627 22.2935C79.0267 22.4124 79.2307 22.5551 79.3747 22.7215C79.5427 22.888 79.6267 23.0783 79.6267 23.2923C79.6267 23.8156 79.4227 24.2437 79.0147 24.5766C78.6307 24.8858 78.1627 25.0404 77.6107 25.0404C76.6747 25.0404 75.6547 24.5291 74.5507 23.5064C73.4467 22.4599 72.5107 21.3659 71.7427 20.2243C71.1907 21.0567 70.5547 21.8891 69.8347 22.7215C69.1387 23.5302 68.4907 24.2199 67.8907 24.7907C67.6507 25.0523 67.3627 25.2545 67.0267 25.3972C66.7147 25.5399 66.4027 25.6112 66.0907 25.6112C65.6587 25.6112 65.2747 25.5161 64.9387 25.3258C64.6027 25.1356 64.4347 24.8026 64.4347 24.3269C64.4347 24.208 64.5187 24.0177 64.6867 23.7561C64.8547 23.4707 64.9507 23.3042 64.9747 23.2567C65.2627 22.7572 65.6467 22.2459 66.1267 21.7227C66.6067 21.1756 66.9067 20.8308 67.0267 20.6881C67.3147 20.3313 67.6267 19.9865 67.9627 19.6535C68.1547 19.4395 68.4427 19.1065 68.8267 18.6546C69.2107 18.2027 69.4747 17.846 69.6187 17.5844L68.3587 15.872C67.7587 15.1822 67.2427 14.6352 66.8107 14.2309C66.3787 13.8028 66.0307 13.5888 65.7667 13.5888C65.3827 13.5888 65.0227 13.6958 64.6867 13.9098C64.3987 14.1001 64.1107 14.1952 63.8227 14.1952C63.5107 14.1952 63.2707 14.1239 63.1027 13.9812C62.9347 13.8147 62.8507 13.6363 62.8507 13.4461C62.8507 12.6374 63.1747 11.9477 63.8227 11.3769C64.4707 10.7823 65.2867 10.485 66.2707 10.485C67.2067 10.485 68.0347 10.8061 68.7547 11.4483C69.4987 12.0666 70.2307 12.8991 70.9507 13.9455C71.0467 14.0406 71.1547 14.1952 71.2747 14.4093C71.3947 14.6233 71.5147 14.8017 71.6347 14.9444C71.8987 14.5639 72.3787 13.8266 73.0747 12.7326C73.8187 11.4245 74.2627 10.6753 74.4067 10.485C74.9107 9.81912 75.4867 9.48615 76.1347 9.48615Z" fill="#D00707"/>
</svg>
