<svg width="55" height="55" viewBox="0 0 55 55" fill="none" xmlns="http://www.w3.org/2000/svg">
<ellipse cx="27.5" cy="27.752" rx="26.9756" ry="27" fill="#1D4ED8" fill-opacity="0.2"/>
<g clip-path="url(#clip0_16_9722)">
<path fill-rule="evenodd" clip-rule="evenodd" d="M27.7246 37.752C33.5236 37.752 38.2246 33.051 38.2246 27.252C38.2246 21.453 33.5236 16.752 27.7246 16.752C21.9256 16.752 17.2246 21.453 17.2246 27.252C17.2246 33.051 21.9256 37.752 27.7246 37.752ZM32.6863 24.9949C33.0707 24.6105 33.0707 23.9872 32.6863 23.6028C32.3018 23.2184 31.6786 23.2184 31.2942 23.6028L26.084 28.813L24.155 26.884C23.7706 26.4996 23.1473 26.4996 22.7629 26.884C22.3785 27.2684 22.3785 27.8917 22.7629 28.2761L25.3879 30.9011C25.7723 31.2855 26.3956 31.2855 26.78 30.9011L32.6863 24.9949Z" fill="#1D4ED8"/>
</g>
<defs>
<clipPath id="clip0_16_9722">
<rect width="21" height="21" fill="white" transform="translate(17.2246 16.752)"/>
</clipPath>
</defs>
</svg>
