<svg width="45" height="38" viewBox="0 0 45 38" fill="none" xmlns="http://www.w3.org/2000/svg">
<g clip-path="url(#clip0_25_11308)">
<path fill-rule="evenodd" clip-rule="evenodd" d="M8.9437 3.87545C8.9437 1.73525 10.6864 0 12.8357 0H32.1894C34.3388 0 36.0799 1.73525 36.0799 3.87545V23.1467C36.0799 25.2869 34.3388 27.0222 32.1894 27.0222H12.8357C10.6864 27.0222 8.9437 25.2869 8.9437 23.1467V3.87545ZM13.6777 24.3742C12.5323 24.3742 11.603 23.4489 11.603 22.3068V4.72014C11.603 3.57965 12.5323 2.65429 13.6777 2.65429H16.0447C19.1646 2.65429 21.4744 5.80052 19.4792 7.79045L13.692 13.5609L18.6595 18.743C21.0678 21.2549 18.2464 24.3742 15.5744 24.3742H13.6777ZM21.1901 2.65429H23.1901C26.3085 2.65429 28.6183 5.80052 26.6246 7.79045L20.8358 13.5609L31.4762 24.3695L20.2481 24.3679C22.6595 24.3679 24.183 20.3264 21.6015 17.6499L17.6587 13.5609L22.2481 8.85027C24.7199 6.31303 22.9264 3.04816 21.1901 2.65429ZM33.419 22.3068L24.8025 13.5609L29.3935 8.85027C31.8654 6.31303 30.0703 3.04816 28.334 2.65429H31.3396C32.4865 2.65429 33.4158 3.57965 33.4158 4.72014L33.419 22.3068ZM1.77919 35.1891V36.7646H2.48452C2.85148 36.7646 3.12949 36.695 3.31853 36.559C3.50757 36.4229 3.60288 36.2236 3.60288 35.9626C3.60288 35.7048 3.51551 35.5118 3.34236 35.3821C3.1692 35.254 2.91026 35.1891 2.56554 35.1891H1.77919ZM1.77919 32.5032V34.0012H2.32407C2.70375 34.0012 2.98651 33.9363 3.17555 33.8098C3.36301 33.6816 3.45673 33.4871 3.45673 33.2261C3.45673 32.9888 3.36936 32.8101 3.19144 32.6867C3.01511 32.5649 2.75299 32.5032 2.40986 32.5032H1.77919ZM0.0222168 31.2947H2.77841C3.59335 31.2947 4.20655 31.4402 4.6164 31.7313C5.02784 32.0239 5.23277 32.4573 5.23277 33.0331C5.23277 33.4191 5.12475 33.7417 4.91029 33.998C4.69583 34.2543 4.38288 34.4393 3.97144 34.5516C4.43371 34.6371 4.78797 34.8174 5.03579 35.0926C5.28361 35.3679 5.40752 35.719 5.40752 36.1461C5.40752 36.7757 5.18194 37.2423 4.72919 37.546C4.27803 37.8481 3.58223 38 2.64179 38H0.0222168V31.2947H0.0222168ZM9.25189 32.7911L8.37975 35.3046H10.0954L9.25189 32.7911ZM8.20501 31.2947H10.3702L12.9199 38H11.0009L10.5228 36.5795H7.93018L7.42819 38H5.65216L8.20501 31.2947ZM13.3075 31.2947H15.549L17.4982 35.3157C17.5649 35.4501 17.6428 35.6383 17.7317 35.8788C17.8191 36.1192 17.9176 36.415 18.024 36.7646C17.9684 36.434 17.9256 36.1303 17.8985 35.8535C17.8715 35.5767 17.8588 35.3236 17.8588 35.0942V31.2947H19.4792V38H17.2472L15.2218 33.8335C15.1281 33.6421 15.0407 33.4333 14.9613 33.2087C14.8834 32.9841 14.8103 32.7389 14.7436 32.4747C14.8072 32.8749 14.8532 33.2419 14.8834 33.5772C14.9136 33.911 14.9295 34.2068 14.9295 34.4615V38H13.3075V31.2947ZM20.7532 31.2947H22.5483V34.1926L24.6341 31.2947H26.6437L24.1703 34.3761L26.8963 38H24.6659L22.5483 34.8901V38H20.7532V31.2947ZM32.1195 35.1891V36.7646H32.8265C33.1918 36.7646 33.4698 36.695 33.6589 36.559C33.8495 36.4229 33.9432 36.2236 33.9432 35.9626C33.9432 35.7048 33.8575 35.5118 33.6827 35.3821C33.5096 35.254 33.2506 35.1891 32.9059 35.1891H32.1195ZM32.1195 32.5032V34.0012H32.6644C33.0441 34.0012 33.3285 33.9363 33.5159 33.8098C33.7034 33.6816 33.7987 33.4871 33.7987 33.2261C33.7987 32.9888 33.7097 32.8101 33.5318 32.6867C33.3555 32.5649 33.0949 32.5032 32.7502 32.5032H32.1195ZM30.3626 31.2947H33.1204C33.9353 31.2947 34.5469 31.4402 34.9583 31.7313C35.3682 32.0239 35.5731 32.4573 35.5731 33.0331C35.5731 33.4191 35.4667 33.7417 35.2522 33.998C35.0362 34.2543 34.7232 34.4393 34.3134 34.5516C34.7741 34.6371 35.1283 34.8174 35.3761 35.0926C35.624 35.3679 35.7479 35.719 35.7479 36.1461C35.7479 36.7757 35.5223 37.2423 35.0711 37.546C34.62 37.8481 33.9226 38 32.9821 38H30.3626V31.2947ZM38.5644 32.4747V34.1941H39.1951C39.5827 34.1941 39.875 34.123 40.0688 33.9838C40.2626 33.843 40.3595 33.6326 40.3595 33.3526C40.3595 33.0505 40.2515 32.829 40.0355 32.6867C39.8194 32.5443 39.4779 32.4747 39.0092 32.4747H38.5644ZM36.809 31.2947H39.4842C40.3754 31.2947 41.0363 31.4386 41.4684 31.7265C41.9005 32.0144 42.1165 32.4526 42.1165 33.041C42.1165 33.476 42.0021 33.8335 41.775 34.1135C41.5462 34.3935 41.2174 34.5801 40.7869 34.675C41.1411 34.8031 41.4255 35.1701 41.6415 35.7744L42.4453 38H40.574L39.9814 36.1651C39.8861 35.8693 39.7575 35.6652 39.5922 35.5513C39.4286 35.439 39.1729 35.3821 38.825 35.3821H38.5644V38H36.809V31.2947ZM43.184 31.2947H44.9791V38H43.184V31.2947Z" fill="#1F4396"/>
</g>
<defs>
<clipPath id="clip0_25_11308">
<rect width="45" height="38" fill="white"/>
</clipPath>
</defs>
</svg>
