<svg width="85" height="28" viewBox="0 0 85 28" fill="none" xmlns="http://www.w3.org/2000/svg">
<g clip-path="url(#clip0_25_11299)">
<path fill-rule="evenodd" clip-rule="evenodd" d="M14.0933 0.958008C14.0656 0.958008 14.0378 0.958008 14.01 0.958008C10.2766 0.958008 6.68453 1.83064 3.20361 3.59106C1.79086 6.97192 0.994164 10.4088 0.952476 13.9156C0.896893 17.3945 1.60906 20.9573 3.18855 24.5914C6.82348 26.1826 10.4584 26.9993 14.0933 27.0424C17.7283 26.9993 21.3632 26.1826 24.997 24.5914C26.5776 20.9573 27.2898 17.3945 27.2342 13.9156C27.1925 10.4088 26.3958 6.97192 24.9831 3.59106C21.5022 1.83064 17.9101 0.958008 14.1767 0.958008C14.1489 0.958008 14.1211 0.958008 14.0933 0.958008Z" fill="#FEFEFE"/>
<path d="M2.61621 2.81738C6.27893 0.929795 10.0806 0 14.0097 0C14.0375 0 14.0653 0 14.093 0C14.1208 0 14.1486 0 14.1764 0C18.1055 0 21.9072 0.929795 25.5699 2.81738L25.7945 3.05654C27.2895 6.60539 28.1429 10.2254 28.1846 13.9014C28.1846 13.9714 28.1846 14.0274 28.1846 14.0986V14.3517C28.1707 17.8866 27.4157 21.4926 25.7945 25.1546L25.5421 25.3938C21.7265 27.0982 17.9098 27.9568 14.093 28C10.2763 27.9568 6.45957 27.0982 2.644 25.3938L2.39156 25.1546C0.77037 21.4926 0.0153607 17.8866 0.00146484 14.3517V14.0986C0.00146484 14.0274 0.00146484 13.9714 0.00146484 13.9014C0.0431525 10.2254 0.896591 6.60539 2.39156 3.05654L2.61621 2.81738ZM14.093 0.957793C14.0653 0.957793 14.0375 0.957793 14.0097 0.957793C10.2763 0.957793 6.68422 1.83042 3.20331 3.59085C1.79056 6.97171 0.993862 10.4086 0.952175 13.9154C0.896591 17.3943 1.60875 20.9571 3.18825 24.5911C6.82318 26.1824 10.4581 26.999 14.093 27.0422C17.728 26.999 21.3629 26.1824 24.9967 24.5911C26.5773 20.9571 27.2895 17.3943 27.2339 13.9154C27.1922 10.4086 26.3955 6.97171 24.9828 3.59085C21.5019 1.83042 17.9098 0.957793 14.1764 0.957793C14.1486 0.957793 14.1208 0.957793 14.093 0.957793Z" fill="#003399"/>
<path fill-rule="evenodd" clip-rule="evenodd" d="M14.3434 21.8173C14.1477 19.1271 14.2739 16.3237 13.4772 13.7606C12.7361 11.3667 9.92568 10.0006 9.8701 7.36641C9.81451 5.30966 11.3662 2.92976 14.2739 2.92976C16.9998 2.91576 18.6917 4.91534 18.8874 7.14125C19.1248 9.71831 16.0213 11.4507 15.2107 13.9018C14.3712 16.4089 14.6097 19.1831 14.3434 21.8173Z" fill="#003399"/>
<path fill-rule="evenodd" clip-rule="evenodd" d="M15.4202 21.1681C15.3079 18.8302 15.3079 16.5914 15.9517 14.6047C16.6639 12.3519 18.1461 10.4503 20.4111 9.83087C21.9628 9.40855 24.2406 11.239 23.8782 13.1126C23.5701 14.6198 22.074 16.3943 19.67 16.5914C18.5514 16.6894 18.0766 17.5912 17.3772 18.1127C20.5084 17.8024 22.5361 16.5634 23.9476 15.2673C24.1572 16.3651 24.2974 18.2107 23.4439 18.8442C21.7671 20.0411 20.2154 19.0693 18.2434 19.6328C17.1398 19.9571 16.4543 20.6618 15.4202 21.1681Z" fill="#003399"/>
<path fill-rule="evenodd" clip-rule="evenodd" d="M13.2831 21.1681C13.4081 18.8302 13.3942 16.5914 12.7654 14.6047C12.0521 12.3519 10.571 10.4503 8.30602 9.83087C6.75431 9.40855 4.46149 11.239 4.839 13.1126C5.14702 14.6198 6.64199 16.3943 9.04713 16.5914C10.1519 16.6894 10.6405 17.5912 11.34 18.1127C8.19369 17.8024 6.18111 16.5634 4.76952 15.2673C4.55992 16.3651 4.41981 18.2107 5.27209 18.8442C6.95001 20.0411 8.50172 19.0693 10.4726 19.6328C11.5773 19.9571 12.2478 20.6618 13.2831 21.1681Z" fill="#003399"/>
<path fill-rule="evenodd" clip-rule="evenodd" d="M20.7336 24.6475V24.2672L21.0138 24.1972L20.7336 23.7749V23.0702L21.9923 24.8306L21.5453 24.9438L21.2373 24.5063L20.7336 24.6475ZM20.7336 23.0702V23.7749L20.5379 23.4925L20.4545 24.3383L20.7336 24.2672V24.6475L20.4128 24.7187L20.3561 25.239L19.9091 25.3521L20.2032 23.0562L20.6502 22.9431L20.7336 23.0702ZM16.5683 25.8736V25.5073H16.6656C16.8196 25.4933 16.918 25.4793 16.9597 25.4641C17.0153 25.4501 17.0709 25.4081 17.0998 25.3661C17.1415 25.3101 17.1554 25.253 17.1554 25.183C17.1415 25.113 17.1276 25.0558 17.0848 25.0138C17.057 24.9718 17.0014 24.9438 16.9458 24.9298C16.8902 24.9158 16.764 24.9158 16.5683 24.9298V24.5635C16.6795 24.5635 16.7501 24.5495 16.7779 24.5495C16.8474 24.5355 16.9041 24.4923 16.9458 24.4503C16.9875 24.4083 17.0014 24.3523 16.9875 24.2812C16.9875 24.2112 16.9597 24.1552 16.918 24.126C16.8902 24.084 16.8335 24.056 16.7501 24.056C16.7223 24.056 16.6656 24.056 16.5683 24.07V23.7037C16.7223 23.6897 16.8335 23.6897 16.9041 23.7037C16.9875 23.7037 17.0709 23.7329 17.1415 23.7749C17.211 23.8029 17.2666 23.8589 17.3233 23.9289C17.365 24 17.3928 24.084 17.4067 24.1832C17.4206 24.2812 17.3928 24.3803 17.3511 24.4643C17.3094 24.5495 17.2388 24.6195 17.1415 24.6755C17.2805 24.7047 17.3928 24.7607 17.4623 24.8446C17.5468 24.9298 17.5885 25.0278 17.6024 25.155C17.6024 25.253 17.5885 25.3521 17.5607 25.4501C17.519 25.5493 17.4623 25.6193 17.3928 25.6904C17.3094 25.7464 17.2249 25.7884 17.1137 25.8164C17.0431 25.8304 16.8613 25.8444 16.5961 25.8736H16.5683ZM19.2097 24.6895L19.6439 24.7467C19.6161 24.9858 19.5455 25.183 19.4204 25.3241C19.2942 25.4501 19.1124 25.5493 18.8889 25.5913C18.6087 25.6333 18.3574 25.5773 18.1478 25.4221C17.9243 25.253 17.7981 25.0138 17.7286 24.6755C17.6719 24.3243 17.7147 24.028 17.8676 23.8029C18.0077 23.5777 18.2312 23.4365 18.5253 23.3805C18.7905 23.3374 19.0001 23.3805 19.1958 23.5065C19.3081 23.5777 19.4054 23.6897 19.476 23.8589L19.0707 24.028C19.029 23.9289 18.9584 23.8449 18.875 23.8029C18.7766 23.7469 18.6793 23.7329 18.567 23.7469C18.413 23.7749 18.3018 23.8589 18.2173 23.986C18.1339 24.126 18.12 24.3103 18.1617 24.5635C18.2173 24.8306 18.3018 25.0138 18.413 25.113C18.5253 25.211 18.6654 25.253 18.8183 25.225C18.9306 25.197 19.0151 25.141 19.0846 25.0558C19.1541 24.9718 19.1958 24.8446 19.2097 24.6895ZM16.5683 23.7037V24.07C16.5127 24.07 16.456 24.084 16.3865 24.084L16.1352 24.1132L16.1769 24.6055L16.4699 24.5775C16.4977 24.5775 16.5405 24.5775 16.5683 24.5635V24.9298C16.5683 24.9298 16.5683 24.9298 16.5544 24.9298L16.2186 24.9578L16.2603 25.5353L16.5683 25.5073V25.8736L15.8689 25.9436L15.6732 23.7889L16.5266 23.7189C16.5405 23.7037 16.5544 23.7037 16.5683 23.7037ZM13.8702 25.127V24.7607C13.9675 24.7607 14.0242 24.7467 14.0659 24.7327C14.1215 24.7187 14.1632 24.6755 14.206 24.6335C14.2338 24.5775 14.2477 24.5215 14.2477 24.4643C14.2616 24.3803 14.2338 24.3243 14.1909 24.2672C14.1493 24.2112 14.0937 24.1832 14.0242 24.1692C13.9814 24.1692 13.9397 24.1552 13.8702 24.1552V23.7889C14.0798 23.7889 14.206 23.8029 14.2755 23.8309C14.4017 23.8589 14.499 23.9289 14.5835 24.042C14.6669 24.1552 14.7086 24.2952 14.6947 24.4643C14.6947 24.5915 14.6669 24.7047 14.6252 24.8027C14.5685 24.8866 14.5129 24.9578 14.4434 25.0138C14.3589 25.0558 14.2894 25.0838 14.206 25.113C14.1215 25.127 14.0103 25.127 13.8702 25.127ZM13.8702 23.7889V24.1552C13.8285 24.1552 13.7718 24.1552 13.7023 24.1552L13.4927 24.1412V24.7607H13.7162C13.7718 24.7607 13.8285 24.7607 13.8702 24.7607V25.127C13.8424 25.127 13.7995 25.127 13.7579 25.127H13.4788L13.4649 25.9436L13.0306 25.9296L13.0735 23.7749L13.7579 23.7889C13.7995 23.7889 13.8424 23.7889 13.8702 23.7889ZM9.82995 24.9158V24.2532C9.95617 24.2812 10.0395 24.2812 10.0812 24.2812C10.138 24.2672 10.1797 24.2532 10.2214 24.2112C10.2491 24.1692 10.2769 24.126 10.2908 24.056C10.3047 23.986 10.2908 23.9289 10.263 23.8729C10.2353 23.8169 10.1797 23.7889 10.109 23.7609C10.0812 23.7469 9.98397 23.7329 9.82995 23.7037V23.3374L10.0118 23.3665C10.2353 23.4085 10.3893 23.4505 10.4865 23.5065C10.585 23.5637 10.6544 23.6477 10.6961 23.7609C10.739 23.8589 10.7529 23.986 10.7251 24.1132C10.6961 24.2672 10.6267 24.3943 10.5155 24.4783C10.4171 24.5635 10.263 24.6055 10.0673 24.6055C10.1519 24.6755 10.2214 24.7467 10.263 24.8166C10.3186 24.9018 10.3754 25.0278 10.4448 25.211L10.6267 25.6764L10.1229 25.5773L9.89943 25.0558C9.87164 25.0138 9.85775 24.9578 9.82995 24.9158ZM11.0597 23.5777L11.4789 23.6197L11.3817 24.7886C11.3678 24.9718 11.3678 25.099 11.3678 25.141C11.3817 25.239 11.4233 25.3101 11.4789 25.3661C11.5496 25.4361 11.6329 25.4641 11.7592 25.4793C11.8854 25.4933 11.9827 25.4641 12.0382 25.4221C12.1089 25.3801 12.1506 25.3241 12.1784 25.253C12.1923 25.183 12.2062 25.0558 12.22 24.8866L12.3185 23.6897L12.7516 23.7329L12.6543 24.8586C12.6404 25.127 12.6114 25.3101 12.5698 25.4081C12.542 25.5073 12.4864 25.6053 12.4296 25.6613C12.3602 25.7324 12.2629 25.7884 12.1506 25.8164C12.0521 25.8596 11.9132 25.8596 11.7453 25.8444C11.5357 25.8304 11.3817 25.7884 11.2832 25.7324C11.186 25.6764 11.1014 25.6053 11.0458 25.5353C10.9903 25.4501 10.9625 25.3661 10.9486 25.2821C10.9347 25.155 10.9347 24.9718 10.9486 24.7327L11.0597 23.5777ZM7.66335 24.2112L7.74673 23.8589L8.65575 24.098L8.43226 24.9298C8.31993 24.9998 8.17982 25.0418 7.98412 25.0558C7.80231 25.0698 7.63556 25.0558 7.46765 25.0138C7.243 24.9578 7.06236 24.8586 6.93613 24.7327C6.79602 24.5915 6.71264 24.4223 6.67095 24.2392C6.642 24.042 6.642 23.8449 6.69875 23.6477C6.75433 23.4365 6.8516 23.2534 6.99172 23.0982C7.11794 22.9582 7.28585 22.8731 7.48155 22.8311C7.63556 22.7891 7.81621 22.8031 8.01307 22.8591C8.26435 22.9291 8.46005 23.0282 8.57122 23.1834C8.68354 23.3234 8.73913 23.5065 8.72523 23.7037L8.29214 23.6757C8.29214 23.5637 8.26435 23.4645 8.19371 23.3805C8.12423 23.3094 8.04086 23.2394 7.91464 23.2114C7.73283 23.1694 7.57882 23.1834 7.4387 23.2674C7.29974 23.3525 7.20131 23.5205 7.13183 23.7469C7.06236 24 7.07625 24.1972 7.14573 24.3523C7.22911 24.5063 7.35533 24.6055 7.52324 24.6475C7.62051 24.6755 7.70504 24.6755 7.80231 24.6755C7.90074 24.6615 7.98412 24.6335 8.06865 24.6055L8.13813 24.3383L7.66335 24.2112ZM9.82995 23.3374L9.10273 23.2114L8.73913 25.3381L9.15832 25.4081L9.31233 24.5215L9.41076 24.5355C9.50803 24.5495 9.57867 24.5775 9.62036 24.5915C9.66204 24.6195 9.68984 24.6615 9.73152 24.7047C9.74542 24.7467 9.78827 24.8166 9.82995 24.9158V24.2532C9.78827 24.2532 9.74542 24.2392 9.68984 24.2392L9.38297 24.1832L9.46634 23.6477L9.80216 23.7037C9.81606 23.7037 9.82995 23.7037 9.82995 23.7037V23.3374Z" fill="#003399"/>
<path fill-rule="evenodd" clip-rule="evenodd" d="M76.4567 20.7041V16.7317H78.1902V9.74601L76.4567 13.2389V4.52073H83.2645L84.998 24.6052H78.1902V20.7041H76.4567ZM76.4567 4.52073V13.2389L74.7232 16.7317H76.4567V20.7041H73.1854L71.8433 24.3941H67.6212V19.8023L72.3319 9.56285H71.3673L74.0516 4.52073H76.4567ZM67.6212 11.2113L69.7323 6.16916L67.6212 4.98621V11.2113ZM50.8315 9.2817C50.93 8.70422 50.93 8.14074 50.8315 7.60527V9.2817ZM67.6212 4.98621V11.2113L67.3422 11.8868C63.1757 8.88738 57.0245 11.6196 56.6747 14.7881C56.3262 18.0978 58.8286 20.774 65.2172 18.7745L63.0217 24.6892C54.5927 25.633 51.3214 22.2673 50.8315 18.3382V16.1122C50.9578 15.0845 51.2229 14.0847 51.5865 13.1549C55.7391 2.7603 62.4763 5.0982 65.0354 4.90105L65.4129 3.74609L67.6212 4.98621ZM67.6212 19.8023L65.5102 24.3941H67.6212V19.8023ZM43.2548 24.2669C47.7698 23.3663 52.2014 17.9007 47.7559 13.5492C49.4894 12.6194 50.5663 10.9441 50.8315 9.2817V7.60527C50.5247 5.87284 49.1964 4.46473 46.694 4.42273L43.2548 4.35157V8.21074H44.6803C46.2042 8.21074 46.0085 12.1831 44.1071 12.1831H43.2548V15.2256C45.3102 15.6199 44.583 18.4921 43.2548 19.3799V24.2669ZM50.8315 16.1122V18.3382C50.7482 17.6055 50.7482 16.8589 50.8315 16.1122ZM37.2992 4.22557L34.5178 9.66201L35.7614 9.56285L32.4067 24.3941H42.0111C42.4303 24.3941 42.8356 24.3521 43.2548 24.2669V19.3799C43.0174 19.5491 42.7511 19.6471 42.4859 19.6471H39.0328L40.1792 15.1825H42.765C42.9468 15.1825 43.1147 15.1964 43.2548 15.2256V12.1831H40.8496L41.8143 8.21074H43.2548V4.35157L37.2992 4.22557Z" fill="#003399"/>
</g>
<defs>
<clipPath id="clip0_25_11299">
<rect width="85" height="28" fill="white"/>
</clipPath>
</defs>
</svg>
