<svg width="54" height="54" viewBox="0 0 54 54" fill="none" xmlns="http://www.w3.org/2000/svg">
<ellipse cx="26.9756" cy="27" rx="26.9756" ry="27" fill="#1D4ED8" fill-opacity="0.2"/>
<path d="M17.5252 16C16.1363 16 15 17.0438 15 18.3195V32.2362L18.7878 28.757H30.1511C31.5399 28.757 32.6762 27.7132 32.6762 26.4375V18.3195C32.6762 17.0438 31.5399 16 30.1511 16H17.5252ZM35.2014 21.7986V26.4375C35.2014 28.9959 32.9363 31.0764 30.1511 31.0764H22.5755V32.2362C22.5755 33.5119 23.7119 34.5556 25.1007 34.5556H36.464L40.2518 38.0348V24.1181C40.2518 22.8424 39.1154 21.7986 37.7266 21.7986H35.2014Z" fill="#1D4ED8"/>
</svg>
