<svg width="28" height="28" viewBox="0 0 28 28" fill="none" xmlns="http://www.w3.org/2000/svg">
<path d="M14.0013 16.3332C15.29 16.3332 16.3346 15.2885 16.3346 13.9998C16.3346 12.7112 15.29 11.6665 14.0013 11.6665C12.7126 11.6665 11.668 12.7112 11.668 13.9998C11.668 15.2885 12.7126 16.3332 14.0013 16.3332Z" fill="#5F2EEA"/>
<path d="M22.1654 16.3332C23.454 16.3332 24.4987 15.2885 24.4987 13.9998C24.4987 12.7112 23.454 11.6665 22.1654 11.6665C20.8767 11.6665 19.832 12.7112 19.832 13.9998C19.832 15.2885 20.8767 16.3332 22.1654 16.3332Z" fill="#5F2EEA"/>
<path d="M5.83333 16.3332C7.122 16.3332 8.16667 15.2885 8.16667 13.9998C8.16667 12.7112 7.122 11.6665 5.83333 11.6665C4.54467 11.6665 3.5 12.7112 3.5 13.9998C3.5 15.2885 4.54467 16.3332 5.83333 16.3332Z" fill="#5F2EEA"/>
</svg>
