<svg width="63" height="63" viewBox="0 0 63 63" fill="none" xmlns="http://www.w3.org/2000/svg">
<g clip-path="url(#clip0_47_9753)">
<path d="M37.6937 52.7623C37.3651 52.6757 37.0621 52.5115 36.81 52.2836L27.8103 43.9982L15.8736 46.6737C15.4858 46.7613 15.0811 46.7384 14.7057 46.6076C14.3302 46.4767 13.999 46.2431 13.7497 45.9334C13.5004 45.6237 13.343 45.2502 13.2954 44.8555C13.2477 44.4607 13.3118 44.0606 13.4803 43.7004L18.6293 32.6943L12.3726 22.218C12.1793 21.884 12.0806 21.5037 12.0871 21.1178C12.0936 20.732 12.205 20.3552 12.4095 20.0279C12.6262 19.695 12.9319 19.4295 13.2919 19.2615C13.6518 19.0935 14.0517 19.0298 14.4461 19.0776L26.6023 20.5089L34.5758 11.3596C34.8369 11.0576 35.1777 10.8352 35.5593 10.718C35.9409 10.6008 36.3478 10.5934 36.7334 10.6967C37.119 10.8 37.4677 11.0099 37.7395 11.3022C38.0114 11.5945 38.1954 11.9575 38.2705 12.3496L40.6681 24.2558L51.9114 29.0944C52.2768 29.2502 52.5912 29.5053 52.819 29.8308C53.0468 30.1562 53.1788 30.539 53.2 30.9357C53.2134 31.3213 53.1215 31.7034 52.9342 32.0408C52.7469 32.3782 52.4712 32.6582 52.1368 32.8508L41.4802 38.7952L40.4363 50.9013C40.4065 51.3057 40.2616 51.6932 40.0186 52.0179C39.7757 52.3426 39.4449 52.5911 39.0653 52.7339C38.6238 52.8947 38.1415 52.9048 37.6937 52.7623Z" fill="url(#paint0_linear_47_9753)"/>
</g>
<defs>
<linearGradient id="paint0_linear_47_9753" x1="36.7642" y1="10.7049" x2="26.3094" y2="49.7227" gradientUnits="userSpaceOnUse">
<stop stop-color="#FFF6DC"/>
<stop offset="1" stop-color="#FFC107"/>
</linearGradient>
<clipPath id="clip0_47_9753">
<rect width="51" height="51" fill="white" transform="translate(13.1992) rotate(15)"/>
</clipPath>
</defs>
</svg>
