<svg width="31" height="31" viewBox="0 0 31 31" fill="none" xmlns="http://www.w3.org/2000/svg">
<rect width="31" height="31" rx="6" fill="#1D4ED8"/>
<g clip-path="url(#clip0_114_10495)">
<path d="M16 10.375C12.25 10.375 9.0475 12.7075 7.75 16C9.0475 19.2925 12.25 21.625 16 21.625C19.7537 21.625 22.9525 19.2925 24.25 16C22.9525 12.7075 19.7537 10.375 16 10.375ZM16 19.75C13.93 19.75 12.25 18.07 12.25 16C12.25 13.93 13.93 12.25 16 12.25C18.07 12.25 19.75 13.93 19.75 16C19.75 18.07 18.07 19.75 16 19.75ZM16 13.75C14.7587 13.75 13.75 14.7587 13.75 16C13.75 17.2413 14.7587 18.25 16 18.25C17.2413 18.25 18.25 17.2413 18.25 16C18.25 14.7587 17.2413 13.75 16 13.75Z" fill="white"/>
</g>
<defs>
<clipPath id="clip0_114_10495">
<rect width="18" height="18" fill="white" transform="translate(7 7)"/>
</clipPath>
</defs>
</svg>
