<svg width="54" height="54" viewBox="0 0 54 54" fill="none" xmlns="http://www.w3.org/2000/svg">
<ellipse cx="26.9756" cy="27" rx="26.9756" ry="27" fill="#1D4ED8" fill-opacity="0.2"/>
<path fill-rule="evenodd" clip-rule="evenodd" d="M26.7281 36.9137C26.8388 36.9715 26.9627 37.0009 27.0865 37C27.2103 36.999 27.3331 36.9686 27.4449 36.9097L31.0128 35.0025C32.0245 34.4631 32.8168 33.8601 33.435 33.1579C34.779 31.6282 35.5129 29.6758 35.4998 27.6626L35.4575 21.022C35.4535 20.2571 34.9511 19.5746 34.2082 19.3265L27.5707 17.0996C27.1711 16.9642 26.7331 16.9672 26.3405 17.1064L19.7282 19.4128C18.9893 19.6707 18.496 20.3581 18.5 21.124L18.5423 27.7597C18.5554 29.7758 19.3145 31.7194 20.6806 33.2335C21.3048 33.9258 22.1041 34.52 23.127 35.0505L26.7281 36.9137ZM25.7836 29.1089C25.9326 29.2521 26.1259 29.3227 26.3192 29.3207C26.5125 29.3198 26.7047 29.2472 26.8517 29.1021L30.7508 25.2581C31.0438 24.9688 31.0408 24.504 30.7448 24.2187C30.4478 23.9333 29.9696 23.9353 29.6766 24.2245L26.3081 27.5449L24.9289 26.2191C24.6319 25.9337 24.1547 25.9367 23.8607 26.226C23.5677 26.5152 23.5708 26.98 23.8678 27.2654L25.7836 29.1089Z" fill="#1D4ED8"/>
</svg>
