<svg width="11" height="14" viewBox="0 0 11 14" fill="none" xmlns="http://www.w3.org/2000/svg">
<path d="M10.7947 3.42214C10.7904 3.4197 10.7859 3.4183 10.7816 3.41616L9.03195 2.37999C8.92308 2.50724 8.77436 2.5918 8.61119 2.61933C8.44829 2.64689 8.28111 2.61566 8.138 2.53101C7.9949 2.44626 7.88469 2.31327 7.82638 2.15471C7.76833 1.99614 7.76539 1.82178 7.81862 1.66133L6.05667 0.618019C6.00932 0.590106 5.95315 0.582565 5.90046 0.597043C5.84776 0.61152 5.80255 0.646864 5.77527 0.695286L0.544519 9.98278L0.544249 9.98333C0.530607 10.0072 0.521784 10.0338 0.518307 10.0612C0.514829 10.0889 0.516699 10.1166 0.523654 10.1435C0.530608 10.1703 0.542644 10.1953 0.559229 10.2175C0.575545 10.2394 0.596146 10.2578 0.619685 10.2718L2.38217 11.3137C2.4913 11.1868 2.63976 11.1023 2.80266 11.0746C2.96556 11.0472 3.13274 11.0785 3.27585 11.1629C3.41896 11.2476 3.5289 11.3803 3.58721 11.5386C3.64579 11.6968 3.64873 11.8709 3.5963 12.0313L5.33605 13.0598C5.34301 13.0653 5.34969 13.071 5.35745 13.0757C5.38099 13.0897 5.40667 13.0984 5.43368 13.1023C5.46043 13.1058 5.48772 13.1039 5.51367 13.0968C5.53988 13.0897 5.56422 13.0773 5.58589 13.0603C5.60728 13.0436 5.62521 13.0225 5.63885 12.9984V12.9986L10.8699 3.71054C10.8835 3.68652 10.8923 3.66003 10.8958 3.63253C10.8993 3.60503 10.8977 3.57712 10.8905 3.55033C10.8835 3.52354 10.8715 3.49845 10.8552 3.47643C10.8386 3.45444 10.818 3.43599 10.7947 3.42214ZM9.29463 4.14311L5.21676 11.3834C5.20311 11.4075 5.18518 11.4286 5.16379 11.4453C5.14239 11.4623 5.11778 11.4747 5.09184 11.4818C5.06562 11.4889 5.03833 11.4908 5.01158 11.4873C4.98484 11.4837 4.9589 11.4747 4.93536 11.4607L2.19519 9.83883C2.17165 9.82484 2.15106 9.80647 2.13474 9.78454C2.11816 9.7626 2.10612 9.73737 2.09916 9.71078C2.09221 9.68391 2.09034 9.65594 2.09381 9.62852C2.09756 9.6011 2.10612 9.5745 2.11976 9.55065L6.19764 2.31031C6.22492 2.26186 6.26985 2.22652 6.32255 2.21204C6.37525 2.19757 6.43142 2.20511 6.47877 2.23307L9.21946 3.85507C9.24273 3.86889 9.26333 3.88731 9.27965 3.90928C9.29623 3.93127 9.30827 3.95633 9.31522 3.98309C9.32218 4.00985 9.32405 4.03774 9.32057 4.06521C9.31683 4.09266 9.30827 4.11914 9.29463 4.14311Z" fill="#1D4ED8"/>
<path d="M7.09809 6.65327L6.2301 6.48777L6.10811 5.63714C6.10624 5.62458 6.10063 5.6129 6.09207 5.60377C6.08351 5.59461 6.07228 5.58841 6.06024 5.58606C6.04793 5.58367 6.03536 5.5852 6.02412 5.59047C6.01289 5.59573 6.00353 5.60445 5.99711 5.61542L5.57636 6.36285L4.72976 6.20151C4.71772 6.19921 4.70515 6.20082 4.69392 6.20612C4.68268 6.21141 4.67332 6.2201 4.66716 6.23107C4.66101 6.24201 4.65834 6.25462 4.65941 6.26723C4.66048 6.27982 4.6653 6.29177 4.67332 6.30143L5.23317 6.97238L4.81188 7.71955C4.80573 7.7308 4.80305 7.74341 4.80439 7.75602C4.80546 7.76891 4.81054 7.78097 4.81856 7.79057C4.82659 7.80017 4.83756 7.80675 4.84959 7.80976C4.86163 7.81278 4.8742 7.81196 4.88571 7.8073L5.66516 7.49033L6.23919 8.17828C6.24721 8.1876 6.25791 8.19446 6.26995 8.19747C6.28172 8.20049 6.29429 8.19967 6.30579 8.19528C6.31729 8.19089 6.32693 8.18294 6.33388 8.17252C6.34083 8.1621 6.34458 8.14976 6.34431 8.13715L6.32933 7.21476L7.11628 6.76673C7.12698 6.76051 7.1358 6.7511 7.14115 6.73975C7.1465 6.7284 7.14838 6.71568 7.1465 6.7032C7.14436 6.69081 7.13848 6.67937 7.12992 6.67046C7.12136 6.66152 7.11013 6.65552 7.09809 6.65327Z" fill="#1D4ED8"/>
</svg>
