<svg width="74" height="30" viewBox="0 0 74 30" fill="none" xmlns="http://www.w3.org/2000/svg">
<g clip-path="url(#clip0_25_11260)">
<path d="M34.9776 14.646V23.4051H32.2466V1.77391H39.4899C40.3545 1.75556 41.214 1.91159 42.019 2.233C42.824 2.55441 43.5584 3.03484 44.1799 3.64656C44.8078 4.22114 45.3075 4.9258 45.6454 5.71319C45.9833 6.50058 46.1517 7.35246 46.1392 8.21156C46.1572 9.0753 45.9914 9.93279 45.6532 10.7252C45.3151 11.5177 44.8125 12.2264 44.1799 12.8027C42.9136 14.0316 41.35 14.6454 39.4899 14.6442H34.9776V14.646ZM34.9776 4.43715V11.988H39.5575C40.0597 12.0031 40.5593 11.9115 41.0246 11.7189C41.4899 11.5263 41.9106 11.237 42.2597 10.8695C42.607 10.5259 42.883 10.115 43.0715 9.66098C43.26 9.20697 43.3572 8.71912 43.3572 8.22626C43.3572 7.73341 43.26 7.24556 43.0715 6.79155C42.883 6.33755 42.607 5.92661 42.2597 5.58303C41.915 5.20779 41.4958 4.91139 41.0299 4.71348C40.5641 4.51557 40.0622 4.42068 39.5575 4.43509H34.9776V4.43685V4.43715ZM52.4324 8.12185C54.4509 8.12185 56.0445 8.67068 57.2126 9.76832C58.3807 10.8663 58.9643 12.3713 58.9632 14.2836V23.4051H56.3509V21.3513H56.2324C55.1013 23.0424 53.5973 23.8883 51.7201 23.8883C50.1176 23.8883 48.7769 23.4051 47.6981 22.4386C47.1804 21.995 46.7665 21.4394 46.4866 20.8124C46.2066 20.1854 46.0677 19.5028 46.08 18.8142C46.08 17.2827 46.6488 16.0648 47.7863 15.1604C48.924 14.256 50.4428 13.8024 52.3425 13.8004C53.9641 13.8004 55.2996 14.1021 56.3492 14.7063V14.071C56.3522 13.6016 56.2526 13.1374 56.0575 12.7121C55.8625 12.2868 55.5768 11.9109 55.2213 11.6119C54.499 10.9488 53.5577 10.587 52.585 10.5986C51.0596 10.5986 49.8525 11.2533 48.9636 12.5627L46.5584 11.0216C47.8814 9.08832 49.8392 8.12185 52.4324 8.12185ZM48.8992 18.8748C48.8974 19.2283 48.9787 19.5772 49.1362 19.8924C49.2937 20.2075 49.523 20.4798 49.8048 20.6866C50.4089 21.1701 51.1587 21.4262 51.9271 21.4116C53.0795 21.4096 54.1841 20.943 54.999 20.1139C55.9037 19.2474 56.3558 18.2307 56.3558 17.0639C55.5045 16.3736 54.3171 16.0286 52.7937 16.0286C51.6843 16.0286 50.7593 16.3007 50.0187 16.8448C49.2706 17.3971 48.8992 18.0683 48.8992 18.8745V18.8748ZM73.9583 8.60509L64.8392 29.9292H62.02L65.4041 22.468L59.4075 8.60509H62.3761L66.7101 19.2369H66.7696L70.9847 8.60509H73.9583Z" fill="#5F6368"/>
<path d="M23.9413 12.7572C23.9425 11.9102 23.8719 11.0652 23.7312 10.2305H12.2129V15.0166H18.8099C18.6749 15.7811 18.3891 16.5098 17.9699 17.1588C17.5506 17.8079 17.0066 18.3638 16.3705 18.7931V21.8996H20.3075C22.6128 19.7369 23.941 16.5387 23.941 12.7572H23.9413Z" fill="#4285F4"/>
<path d="M12.2136 24.9018C15.5095 24.9018 18.2848 23.8006 20.3085 21.902L16.3715 18.7953C15.2753 19.5512 13.8641 19.9829 12.2136 19.9829C9.02811 19.9829 6.32422 17.7976 5.35702 14.8535H1.30176V18.055C2.31828 20.1131 3.87701 21.8433 5.80391 23.0523C7.73081 24.2613 9.95005 24.9016 12.2139 24.9018H12.2136Z" fill="#34A853"/>
<path d="M5.35761 14.8528C4.84645 13.3098 4.84645 11.6389 5.35761 10.096V6.89453H1.30148C0.446336 8.62592 0.000976563 10.5368 0.000976562 12.4745C0.000976563 14.4123 0.446336 16.3231 1.30148 18.0545L5.35703 14.8528H5.35761Z" fill="#FBBC04"/>
<path d="M12.2132 4.96681C13.9549 4.93789 15.6379 5.60751 16.8983 6.83093L20.3844 3.28387C18.1739 1.1713 15.2454 0.0115207 12.2129 0.0476965C9.94904 0.0478306 7.72978 0.688184 5.80288 1.89727C3.87597 3.10635 2.31727 4.83657 1.30078 6.89475L5.35633 10.0962C6.32353 7.15211 9.02742 4.96681 12.2129 4.96681H12.2132Z" fill="#EA4335"/>
</g>
<defs>
<clipPath id="clip0_25_11260">
<rect width="74" height="30" fill="white"/>
</clipPath>
</defs>
</svg>
