<svg width="31" height="37" viewBox="0 0 31 37" fill="none" xmlns="http://www.w3.org/2000/svg">
<g clip-path="url(#clip0_25_11293)">
<path d="M26.2974 2.87963C24.61 0.933825 21.5599 0.0996094 17.6579 0.0996094H6.33324C5.94717 0.0996238 5.57378 0.238977 5.28018 0.492614C4.98658 0.746252 4.79204 1.09754 4.73153 1.48331L0.0161428 31.7409C-0.0775838 32.3375 0.379061 32.8778 0.976779 32.8778H7.96825L9.72411 21.6098L9.66961 21.9627C9.79471 21.1662 10.468 20.5787 11.2653 20.5787H14.5876C21.1143 20.5787 26.2248 17.8966 27.7177 10.1378C27.762 9.90828 27.8004 9.68494 27.8336 9.46673C27.6451 9.36578 27.6451 9.36578 27.8336 9.46673C28.2781 6.59899 27.8305 4.64693 26.2974 2.87963Z" fill="#27346A"/>
<path d="M12.3993 8.43367C12.5904 8.34159 12.7995 8.29388 13.0112 8.29401H21.8896C22.9409 8.29401 23.9215 8.36323 24.8176 8.50915C25.0683 8.5496 25.3178 8.59789 25.5656 8.65396C25.9168 8.73237 26.264 8.82834 26.6058 8.94151C27.0463 9.09036 27.4566 9.26373 27.8337 9.46674C28.2781 6.59789 27.8305 4.64693 26.2974 2.87963C24.6091 0.933825 21.5599 0.0996094 17.6579 0.0996094H6.33227C5.53487 0.0996094 4.8565 0.686954 4.73153 1.48331L0.0161434 31.7398C-0.0775831 32.3374 0.379061 32.877 0.975811 32.877H7.96825L11.6111 9.50447C11.6469 9.27474 11.7374 9.05725 11.8747 8.87072C12.012 8.68419 12.192 8.53421 12.3993 8.43367Z" fill="#27346A"/>
<path d="M27.7183 10.1378C26.2255 17.8956 21.1151 20.5788 14.5882 20.5788H11.2649C10.4677 20.5788 9.79425 21.1663 9.67037 21.9628L7.48596 35.9731C7.40435 36.4953 7.80347 36.9685 8.32563 36.9685H14.2193C14.5569 36.9684 14.8834 36.8464 15.14 36.6245C15.3967 36.4026 15.5667 36.0954 15.6195 35.758L15.6769 35.4542L16.7877 28.3315L16.8592 27.9379C16.912 27.6005 17.082 27.2933 17.3386 27.0714C17.5953 26.8495 17.9217 26.7275 18.2593 26.7274H19.1414C24.8506 26.7274 29.321 24.3807 30.6273 17.5938C31.1726 14.7576 30.8905 12.3896 29.448 10.7263C29.0105 10.2225 28.4672 9.80641 27.8342 9.4668C27.7999 9.6861 27.7628 9.90835 27.7183 10.1378Z" fill="#2790C3"/>
<path d="M26.2715 8.83657C26.0388 8.76781 25.8038 8.70692 25.567 8.65403C25.3191 8.59887 25.0696 8.55091 24.819 8.51019C23.9219 8.36329 22.942 8.29395 21.8897 8.29395H13.0125C12.8006 8.29346 12.5914 8.34159 12.4006 8.43472C12.1931 8.53495 12.0128 8.68484 11.8755 8.87142C11.7381 9.058 11.6478 9.27565 11.6123 9.50551L9.72539 21.6099L9.6709 21.9628C9.79502 21.1663 10.4683 20.5788 11.2657 20.5788H14.589C21.1157 20.5788 26.2261 17.8967 27.719 10.1378C27.7634 9.90835 27.8007 9.68598 27.835 9.4668C27.4569 9.26489 27.0477 9.09043 26.6071 8.94255C26.4959 8.90526 26.3841 8.86993 26.2716 8.83657" fill="#1F264F"/>
</g>
<defs>
<clipPath id="clip0_25_11293">
<rect width="31" height="37" fill="white"/>
</clipPath>
</defs>
</svg>
