<svg width="106" height="35" viewBox="0 0 106 35" fill="none" xmlns="http://www.w3.org/2000/svg">
<g clip-path="url(#clip0_25_11268)">
<path d="M57.5988 30.2568C57.4896 32.3116 56.5752 33.7174 54.8221 34.5706C54.3125 34.817 53.8379 34.6216 53.6063 34.0995C53.4273 33.6956 53.6326 33.2377 54.1116 33.0233C55.3536 32.4691 55.8982 31.3331 55.8749 30.2627C55.8457 28.9604 55.0682 27.9672 53.8437 27.54C52.6643 27.1302 51.4325 27.5283 50.5618 28.6031C49.8934 29.4285 49.8366 30.8547 50.4234 31.8099C50.7481 32.3408 51.1777 32.7404 51.7426 33.0072C52.2755 33.2581 52.4633 33.7218 52.2479 34.1812C52.028 34.6493 51.5067 34.7995 50.984 34.5341C49.5804 33.8254 48.6602 32.7229 48.3791 31.1581C47.9351 28.6847 49.477 26.4666 51.6989 25.8512C54.3256 25.1235 56.8475 26.786 57.4357 29.1908C57.5275 29.5699 57.5551 29.9666 57.5988 30.2568Z" fill="#00AA11"/>
<path d="M64.3052 27.7457C64.3198 27.5488 64.3299 27.3928 64.3431 27.2134C64.7973 27.2134 65.2342 27.2134 65.6986 27.2134C65.7088 27.3126 65.7278 27.4074 65.7278 27.5022C65.7292 29.1063 65.7365 30.712 65.7248 32.3176C65.7161 33.3078 65.3346 34.123 64.4508 34.6218C63.3442 35.2488 61.6173 35.052 60.6287 34.2193C60.5355 34.1405 60.4467 34.0574 60.3375 33.9597C60.6316 33.6695 60.9199 33.3851 61.2373 33.073C61.7309 33.4697 62.2842 33.6695 62.9307 33.6505C63.9281 33.6199 64.4202 33.073 64.2906 32.0084C63.4549 32.6632 62.5346 32.688 61.5984 32.3745C61.0407 32.1878 60.601 31.8145 60.288 31.2924C59.6284 30.1913 59.7987 28.7943 60.7117 27.9411C61.6901 27.0268 63.1695 26.9334 64.3052 27.7457ZM64.2484 29.8793C64.2484 28.9488 63.7446 28.4413 62.8273 28.4501C61.9639 28.4574 61.3829 29.0247 61.3509 29.8122C61.3101 30.8403 61.977 31.3026 62.8593 31.2909C63.7665 31.2778 64.2484 30.798 64.2484 29.8793Z" fill="black"/>
<path d="M87.301 27.1977C86.4652 27.9867 85.7037 28.7071 84.9306 29.4377C85.7168 30.4848 86.4856 31.5086 87.3068 32.6023C86.7448 32.6023 86.2803 32.6169 85.8173 32.5921C85.7096 32.5863 85.5814 32.4711 85.5086 32.3734C85.0805 31.8017 84.6685 31.2184 84.2491 30.6409C84.1792 30.5431 84.1035 30.4498 83.9783 30.2836C83.6769 30.6292 83.2925 30.9004 83.1615 31.265C83.0246 31.6457 83.1309 32.1138 83.1309 32.6038C82.8805 32.6038 82.6635 32.6038 82.4466 32.6038C82.2398 32.6038 82.0316 32.6038 81.7913 32.6038C81.7812 32.4419 81.7681 32.3121 81.7681 32.1809C81.7666 30.1567 81.7768 28.1311 81.7564 26.1054C81.7535 25.7161 81.8729 25.6038 82.2398 25.6432C82.5179 25.6738 82.8004 25.649 83.1265 25.649C83.1265 26.8798 83.1265 28.0669 83.1265 29.3546C83.5502 28.9711 83.9041 28.6575 84.2506 28.3367C84.6044 28.0115 84.948 27.6761 85.3033 27.3538C85.3805 27.2838 85.4868 27.2065 85.5829 27.2036C86.1187 27.1904 86.656 27.1977 87.301 27.1977Z" fill="black"/>
<path d="M76.8376 30.3594C76.9221 30.931 77.4681 31.3685 78.0971 31.4181C78.6285 31.4604 79.1265 31.3831 79.5604 31.0375C79.6303 30.9821 79.7788 30.9383 79.8385 30.9748C80.1297 31.1541 80.402 31.3612 80.7078 31.5771C79.7657 32.5177 78.6926 32.7758 77.4608 32.471C76.4576 32.2231 75.731 31.6587 75.4951 30.6291C74.9841 28.3877 76.708 26.906 78.6999 27.2443C79.856 27.4398 80.5753 28.1193 80.8461 29.251C80.9276 29.5894 80.9043 29.9525 80.932 30.3594C80.2084 30.3594 79.5342 30.3594 78.8601 30.3594C78.1961 30.3594 77.5307 30.3594 76.8376 30.3594ZM79.5124 29.3269C79.4192 28.6546 78.8848 28.3337 77.9864 28.376C77.3429 28.4052 76.906 28.7727 76.874 29.3269C77.7476 29.3269 78.6184 29.3269 79.5124 29.3269Z" fill="black"/>
<path d="M69.4019 27.1201C70.9948 27.1843 72.1786 28.1774 72.298 29.7247C72.3781 30.7805 71.915 31.6278 70.989 32.1966C69.9275 32.8484 68.2444 32.6734 67.346 31.8043C65.9977 30.4991 66.4098 28.1978 68.1366 27.476C68.537 27.3082 68.9782 27.2368 69.4019 27.1201ZM70.8507 29.9026C70.8478 29.0247 70.2886 28.4443 69.4427 28.4501C68.4933 28.4574 67.9968 29.0699 67.9648 29.9055C67.9342 30.7091 68.6215 31.3537 69.4267 31.3478C70.2872 31.3405 70.8536 30.7659 70.8507 29.9026Z" fill="black"/>
<path d="M73.1336 27.2002C73.6213 27.2002 74.0509 27.2002 74.5401 27.2002C74.5401 27.3212 74.5401 27.4379 74.5401 27.5546C74.5401 29.5073 74.5401 31.46 74.5387 33.4127C74.5387 34.3971 73.965 34.9702 72.9807 34.9731C72.6021 34.9746 72.2221 34.9746 71.8027 34.9746C71.8027 34.7427 71.8027 34.5487 71.8027 34.3548C71.8027 34.1594 71.8027 33.9625 71.8027 33.6985C72.0561 33.6985 72.2861 33.7073 72.5147 33.6956C73.0346 33.6708 73.1336 33.5644 73.1336 33.051C73.1336 31.2471 73.1336 29.4431 73.1336 27.6392C73.1336 27.505 73.1336 27.3723 73.1336 27.2002Z" fill="black"/>
<path d="M51.2256 30.277C51.1193 29.4866 52.1196 28.5358 52.9685 28.5912C53.9091 28.6539 54.6866 29.3874 54.6808 30.328C54.675 31.2643 53.8625 32.0912 52.9277 32.0664C51.9915 32.0416 51.1702 31.2993 51.2256 30.277Z" fill="#00AA11"/>
<path d="M18.6919 27.8555H20.1436C20.9342 27.8555 21.4016 28.3017 21.4016 29.0178C21.4016 29.7455 20.94 30.1713 20.1436 30.1713H19.1331V31.6253H18.6919V27.8555ZM20.1174 29.7513C20.6925 29.7513 20.956 29.5194 20.956 29.0178C20.956 28.5176 20.6808 28.2755 20.1174 28.2755H19.1331V29.7513H20.1174Z" fill="black"/>
<path d="M22.9621 28.6895C23.7688 28.6895 24.3075 29.2976 24.3075 30.1974C24.3075 31.0972 23.7688 31.7053 22.9621 31.7053C22.1613 31.7053 21.624 31.0972 21.624 30.1974C21.624 29.2976 22.1613 28.6895 22.9621 28.6895ZM22.9621 29.0832C22.3986 29.0832 22.0434 29.5134 22.0434 30.1974C22.0434 30.8813 22.3986 31.3115 22.9621 31.3115C23.5271 31.3115 23.8882 30.8813 23.8882 30.1974C23.8882 29.5134 23.5271 29.0832 22.9621 29.0832Z" fill="black"/>
<path d="M24.5774 28.7695H24.9909L25.5063 30.9891H25.518L26.281 28.7695H26.6624L27.4269 30.9891H27.4371L27.954 28.7695H28.3675L27.6846 31.6249H27.2871L26.4804 29.2931H26.4688L25.6578 31.6249H25.2588L24.5774 28.7695Z" fill="black"/>
<path d="M29.9588 28.6895C30.7232 28.6895 31.2329 29.2655 31.2329 30.1055V30.3213H29.0663C29.0779 30.8711 29.4274 31.3232 29.9486 31.3232C30.352 31.3232 30.5776 31.1774 30.8193 30.7515L31.1688 30.9615C30.9271 31.4515 30.5136 31.7053 29.9588 31.7053C29.1682 31.7053 28.6411 31.0972 28.6411 30.1974C28.6411 29.2976 29.1857 28.6895 29.9588 28.6895ZM30.8092 29.9815C30.8033 29.7176 30.7174 29.5032 30.5616 29.3297C30.4058 29.1576 30.2064 29.0715 29.9588 29.0715C29.4754 29.0715 29.0881 29.5032 29.0779 29.9815H30.8092Z" fill="black"/>
<path d="M31.8311 28.7698H32.2286V29.0075H32.2388C32.3465 28.8296 32.5562 28.7217 32.8299 28.7217C32.9158 28.7217 33.0134 28.7377 33.1153 28.7654L33.0236 29.2015C32.9216 29.1694 32.8255 29.1533 32.744 29.1533C32.4062 29.1533 32.2489 29.3794 32.2489 29.9117V31.6252H31.8311V28.7698Z" fill="black"/>
<path d="M34.6263 28.6895C35.3893 28.6895 35.9003 29.2655 35.9003 30.1055V30.3213H33.7338C33.7439 30.8711 34.0934 31.3232 34.6147 31.3232C35.018 31.3232 35.2451 31.1774 35.4868 30.7515L35.8363 30.9615C35.5946 31.4515 35.1796 31.7053 34.6263 31.7053C33.8357 31.7053 33.3086 31.0972 33.3086 30.1974C33.3086 29.2976 33.8517 28.6895 34.6263 28.6895ZM35.4752 29.9815C35.4708 29.7176 35.3849 29.5032 35.2291 29.3297C35.0719 29.1576 34.8738 29.0715 34.6263 29.0715C34.1429 29.0715 33.7556 29.5032 33.7439 29.9815H35.4752Z" fill="black"/>
<path d="M37.6693 28.6894C38.0143 28.6894 38.3201 28.8352 38.5079 29.0715H38.5196V27.6934H38.9389V31.625H38.5356V31.3392H38.524C38.3361 31.5711 38.0187 31.7052 37.6693 31.7052C36.9281 31.7052 36.3894 31.0854 36.3894 30.1973C36.3894 29.3092 36.9281 28.6894 37.6693 28.6894ZM38.5196 29.9173C38.5196 29.4536 38.1425 29.0832 37.6693 29.0832C37.1582 29.0832 36.8087 29.5236 36.8087 30.1973C36.8087 30.8711 37.1582 31.3115 37.6969 31.3115C38.1483 31.3115 38.5196 30.9352 38.5196 30.4715V29.9173Z" fill="black"/>
<path d="M41.5034 31.3392V31.625H41.1016V27.6934H41.5194V29.0715H41.5311C41.7189 28.8352 42.0261 28.6894 42.3698 28.6894C43.1124 28.6894 43.6496 29.3092 43.6496 30.1973C43.6496 31.0854 43.1124 31.7052 42.3698 31.7052C42.0203 31.7052 41.7029 31.5711 41.5151 31.3392H41.5034ZM42.3698 29.0832C41.8966 29.0832 41.5194 29.4536 41.5194 29.9173V30.4715C41.5194 30.9352 41.8907 31.3115 42.3421 31.3115C42.8808 31.3115 43.2303 30.8711 43.2303 30.1973C43.2303 29.5236 42.8808 29.0832 42.3698 29.0832Z" fill="black"/>
<path d="M44.8852 31.3814L43.7888 28.7695H44.2358L45.1007 30.8972H45.1109L45.9831 28.7695H46.4286L44.7192 32.8354H44.2839L44.8852 31.3814Z" fill="black"/>
<path d="M11.5654 0.00976562C17.9516 0.00976562 23.1293 5.01477 23.1293 11.1879C23.1293 17.361 17.9516 22.366 11.5654 22.366C5.17769 22.366 0 17.361 0 11.1879C0 5.01477 5.17769 0.00976562 11.5654 0.00976562Z" fill="#00AED6"/>
<path fill-rule="evenodd" clip-rule="evenodd" d="M18.311 10.8436C18.2222 9.42031 16.97 8.32948 15.4965 8.39365H8.19152C7.92506 8.39365 7.70957 8.1851 7.70957 7.92698C7.70957 7.67031 7.92506 7.46177 8.19152 7.46177H15.5926C15.5504 6.49781 14.8689 5.66948 13.9065 5.41281C11.7486 5.03948 9.53982 5.03948 7.38196 5.41281C6.15597 5.70448 5.23866 6.69031 5.06976 7.89927C4.73196 10.0926 4.73196 12.3209 5.06976 14.5128C5.32748 15.7932 6.37874 16.7834 7.70957 17.0007C10.3843 17.3259 13.0911 17.3259 15.7659 17.0007C16.9584 16.7674 17.8597 15.8209 18.0023 14.6528C18.247 13.3972 18.3503 12.1197 18.311 10.8436ZM15.9013 12.4084V12.8182C15.9013 13.0749 15.6858 13.2834 15.4193 13.2834C15.1529 13.2834 14.9374 13.0749 14.9374 12.8182V12.4084C14.7816 12.2772 14.6942 12.0861 14.6971 11.8864C14.6971 11.4999 15.0204 11.1878 15.4193 11.1878C15.8183 11.1878 16.1415 11.4999 16.1415 11.8864C16.1401 12.0847 16.0527 12.2743 15.9013 12.4084Z" fill="white"/>
<path d="M56.0693 9.93113C56.0853 7.97113 54.4546 6.36988 52.4263 6.35384C50.398 6.33926 48.7425 7.91426 48.7265 9.87426C48.7105 11.8343 50.3412 13.437 52.3695 13.4515C52.3884 13.4515 52.4074 13.4515 52.4263 13.4515C54.3497 13.5522 55.9936 12.1245 56.097 10.2651C56.1028 10.1543 56.1028 10.042 56.0984 9.93113H56.0693ZM45.1606 9.93113C45.1606 6.20509 48.2052 3.36426 52.4263 3.36426C56.6474 3.36426 59.6934 6.22259 59.6934 9.93113C59.6934 13.6382 56.6765 16.5068 52.4263 16.5068C48.1761 16.5068 45.1606 13.647 45.1606 9.93113Z" fill="black"/>
<path d="M39.3779 10.6099C39.3779 12.147 37.7588 13.4041 35.7073 13.4041C33.8217 13.5893 32.1385 12.2607 31.9477 10.4378C31.9288 10.2541 31.9259 10.0689 31.939 9.88365C31.939 7.85219 33.481 6.45511 35.8514 6.45511C37.7792 6.45511 39.3779 7.73115 39.3779 9.1749V10.6099ZM39.5221 3.35323V4.82469C38.35 3.79511 36.7964 3.26865 35.2151 3.36344C31.476 3.39552 28.4736 6.35302 28.5071 9.96677C28.5421 13.5805 31.6012 16.4841 35.3403 16.4505C36.8794 16.5176 38.3776 15.9605 39.474 14.9134V16.1705C39.474 17.8753 37.9525 19.1236 35.9475 19.1236C34.4172 19.2301 32.9087 18.7182 31.7847 17.7076L29.4419 19.8878C31.1979 21.5532 33.5843 22.4486 36.0436 22.3655C40.1497 22.3655 42.9627 19.7011 42.9627 16.153V3.35323H39.5221Z" fill="black"/>
<path d="M61.814 3.73587H65.2633V4.83545H65.3114C66.4427 3.83795 67.9366 3.31587 69.4655 3.38149C73.2206 3.51858 76.1502 6.57233 76.009 10.2007C75.875 13.6394 73.0226 16.3957 69.4655 16.5255C68.0051 16.5575 66.5796 16.0938 65.4366 15.2115V21.4342H61.8431L61.814 3.73587ZM68.9064 6.45566C66.9786 6.45566 65.4089 7.75066 65.4089 9.15795V10.7315C65.4089 12.2307 66.9596 13.4702 68.9253 13.4702C70.9303 13.5694 72.6382 12.0805 72.7416 10.1438C72.845 8.20712 71.3045 6.55628 69.2995 6.45566C69.1757 6.44983 69.0505 6.44983 68.9253 6.45566H68.9064Z" fill="black"/>
<path d="M82.9092 8.72951C85.2709 8.4218 85.9741 8.09513 85.9741 7.46221C85.9741 6.64263 85.0787 6.14826 83.6896 6.14826C82.1942 6.03013 80.8328 6.98388 80.4805 8.39409L77.0894 7.71305C77.5713 5.17992 80.2694 3.37305 83.5935 3.37305C87.353 3.37305 89.6841 5.23534 89.6841 8.25409V16.1626H86.4561V14.7845H86.408C85.3131 15.976 83.7071 16.6089 82.0617 16.498C79.2181 16.498 77.2422 14.9974 77.2422 12.772C77.2422 10.5451 78.8614 9.26909 82.9092 8.72951ZM86.2639 10.042H86.2158C85.897 10.4897 85.2519 10.7508 83.4683 11.0483C81.3585 11.4303 80.578 11.8314 80.578 12.5576C80.578 13.2839 81.2041 13.6383 82.5626 13.6383C84.6346 13.6383 86.2348 12.7064 86.2348 11.5237L86.2639 10.042Z" fill="black"/>
<path d="M96.1896 15.4633L90.2432 3.73535H94.2051L98.1072 11.8583H98.1655L102.02 3.73535H106L97.0953 21.4337H93.1349L96.1896 15.4633Z" fill="black"/>
</g>
<defs>
<clipPath id="clip0_25_11268">
<rect width="106" height="35" fill="white"/>
</clipPath>
</defs>
</svg>
