<svg width="80" height="26" viewBox="0 0 80 26" fill="none" xmlns="http://www.w3.org/2000/svg">
<g clip-path="url(#clip0_25_11266)">
<path d="M41.3741 8.27913C41.3284 11.8866 44.5813 13.8995 47.0316 15.0965C49.5491 16.3244 50.3947 17.1119 50.3847 18.2102C50.3659 19.8908 48.3766 20.6326 46.515 20.6614C43.2672 20.7118 41.3787 19.7824 39.8775 19.0795L38.7075 24.5674C40.2137 25.2631 43.0028 25.8699 45.895 25.8965C52.6841 25.8965 57.1256 22.5372 57.1497 17.3287C57.1763 10.7184 48.0284 10.3526 48.0909 7.39795C48.1125 6.50205 48.9653 5.546 50.8341 5.30292C51.7591 5.18012 54.3125 5.08615 57.2075 6.42248L58.3438 1.11285C56.7869 0.544605 54.7859 0.000484467 52.2947 0.000484467C45.9047 0.000484467 41.4103 3.40554 41.3741 8.27913ZM69.2619 0.457834C68.0222 0.457834 66.9775 1.1827 66.5112 2.29506L56.8134 25.5065H63.5975L64.9475 21.7666H73.2375L74.0206 25.5065H80L74.7822 0.457834H69.2619ZM70.2109 7.22441L72.1687 16.6305H66.8069L70.2109 7.22441ZM33.1488 0.458147L27.8012 25.5062H34.2659L39.6109 0.45752H33.1488V0.458147ZM23.5853 0.45752L16.8566 17.5069L14.1347 3.01053C13.8153 1.39227 12.5541 0.457834 11.1534 0.457834H0.154062L0 1.18521C2.25812 1.67639 4.82375 2.46861 6.37813 3.31627C7.32937 3.83407 7.60063 4.28673 7.91313 5.51718L13.0684 25.5065H19.9L30.3737 0.457834H23.5853" fill="url(#paint0_linear_25_11266)"/>
</g>
<defs>
<linearGradient id="paint0_linear_25_11266" x1="36.7792" y1="26.416" x2="37.5306" y2="-0.179511" gradientUnits="userSpaceOnUse">
<stop stop-color="#222357"/>
<stop offset="1" stop-color="#254AA5"/>
</linearGradient>
<clipPath id="clip0_25_11266">
<rect width="80" height="26" fill="white"/>
</clipPath>
</defs>
</svg>
