<svg width="62" height="30" viewBox="0 0 62 30" fill="none" xmlns="http://www.w3.org/2000/svg">
<rect x="0.5" y="0.5" width="61" height="29" rx="3.5" stroke="#5F2EEA"/>
<path fill-rule="evenodd" clip-rule="evenodd" d="M31 6.5625C31.2486 6.5625 31.4871 6.66127 31.6629 6.83709C31.8387 7.0129 31.9375 7.25136 31.9375 7.5V15C31.9375 15.2486 31.8387 15.4871 31.6629 15.6629C31.4871 15.8387 31.2486 15.9375 31 15.9375H23.5C23.2514 15.9375 23.0129 15.8387 22.8371 15.6629C22.6613 15.4871 22.5625 15.2486 22.5625 15C22.5625 14.7514 22.6613 14.5129 22.8371 14.3371C23.0129 14.1613 23.2514 14.0625 23.5 14.0625H30.0625V7.5C30.0625 7.25136 30.1613 7.0129 30.3371 6.83709C30.5129 6.66127 30.7514 6.5625 31 6.5625Z" fill="#5F2EEA"/>
<path fill-rule="evenodd" clip-rule="evenodd" d="M30.0625 15C30.0625 14.7514 30.1613 14.5129 30.3371 14.3371C30.5129 14.1613 30.7514 14.0625 31 14.0625H38.5C38.7486 14.0625 38.9871 14.1613 39.1629 14.3371C39.3387 14.5129 39.4375 14.7514 39.4375 15C39.4375 15.2486 39.3387 15.4871 39.1629 15.6629C38.9871 15.8387 38.7486 15.9375 38.5 15.9375H31.9375V22.5C31.9375 22.7486 31.8387 22.9871 31.6629 23.1629C31.4871 23.3387 31.2486 23.4375 31 23.4375C30.7514 23.4375 30.5129 23.3387 30.3371 23.1629C30.1613 22.9871 30.0625 22.7486 30.0625 22.5V15Z" fill="#5F2EEA"/>
</svg>
